<svg width="268" height="119" viewBox="0 0 268 119" fill="none" xmlns="http://www.w3.org/2000/svg">
<g clip-path="url(#clip0_25_41)">
<path opacity="0.7" d="M212.426 39.784C210.194 40.0188 207.844 40.4882 206.199 42.4833C204.554 44.5957 204.202 47.8817 203.967 50.8156C202.322 72.644 199.384 104.8 201.382 106.443C203.379 108.086 255.781 106.912 257.543 103.744C259.071 101.044 259.071 97.5237 259.188 94.2377C259.188 86.0227 259.306 77.8077 259.306 69.5927C259.306 62.6687 260.128 55.1578 259.188 48.2337C258.483 42.8353 256.133 41.3097 252.139 40.4882C246.029 39.3146 239.684 38.8452 233.457 38.6105C226.525 38.4931 219.476 38.7278 212.426 39.784Z" fill="#BCAC4A"/>
<path opacity="0.7" d="M104.451 51.6372C107.858 51.9892 111.5 52.6934 113.85 55.2752C116.317 57.9744 116.787 61.9646 116.905 65.6027C117.375 77.8078 116.435 90.0129 114.32 101.983C113.968 104.213 113.263 106.678 111.383 107.851C109.855 108.79 107.975 108.673 106.331 108.673C99.046 108.321 91.644 107.851 84.3595 107.499C80.0123 107.264 75.1951 106.795 72.2578 103.626C70.0254 101.044 69.4379 97.5238 69.0855 94.1204C68.263 86.7269 67.4406 79.3334 66.7356 72.0573C66.3831 67.9498 64.6208 61.0257 67.4406 57.3877C73.1977 49.6421 96.1087 50.8157 104.451 51.6372Z" fill="#BCAC4A"/>
<path d="M124.542 2.11254C124.424 1.4084 124.072 0.704259 123.484 0.352187C122.897 0.00011644 122.192 -0.117241 121.605 0.117473L114.555 1.4084C113.85 1.4084 113.263 1.99519 113.263 2.69933C113.263 3.28611 113.028 14.7871 112.91 19.9508C112.91 20.6549 113.498 21.2417 114.203 21.2417C114.907 21.2417 115.495 20.6549 115.495 19.9508C115.612 15.6086 115.73 6.80682 115.847 3.75554L122.31 2.58197C122.662 5.98532 123.249 13.8482 122.779 19.2467C122.662 19.9508 123.249 20.5376 123.954 20.6549H124.072C124.777 20.6549 125.247 20.1855 125.364 19.4814C125.482 13.7309 124.777 5.39854 124.542 2.11254Z" fill="#191919"/>
<path d="M33.9553 78.1598C32.8979 78.7466 31.9579 79.216 31.018 79.3334C31.8404 78.5119 32.5454 77.3383 32.6629 76.1648C32.7804 75.578 32.3104 74.9912 31.7229 74.8738C31.1355 74.7565 30.548 75.2259 30.4305 75.8127C30.1955 76.9862 29.3731 78.0425 28.3157 78.5119C28.1982 78.5119 28.1982 78.6292 28.0807 78.6292C27.4932 78.3945 26.7883 78.3945 25.9658 78.7466C25.3783 78.9813 24.9084 79.4507 24.6734 79.9202L24.4384 80.1549C23.616 81.0938 22.5585 81.5632 21.3836 82.0326V76.5168C21.5011 76.5168 21.6186 76.6342 21.8536 76.6342C22.2061 76.6342 22.5585 76.3995 22.7935 76.1648C23.616 74.8738 24.6734 73.3482 25.9658 72.5267C26.3183 72.292 26.7883 72.1746 27.2582 72.0573C27.2582 72.1746 27.2582 72.1746 27.3757 72.292C27.6107 72.644 27.9632 72.8788 28.3157 72.8788C28.5506 72.8788 28.6681 72.8788 28.9031 72.7614L30.4305 71.9399C30.548 71.9399 30.548 71.9399 30.6655 71.9399C31.4879 71.9399 32.4279 72.0573 33.3678 71.8225C35.0127 71.4705 36.1876 70.4143 36.4226 69.006C36.5401 68.4192 36.0701 67.8324 35.4827 67.715C34.8952 67.5977 34.3078 68.0671 34.1903 68.6539C34.0728 69.1233 33.4853 69.5928 32.8979 69.7101C32.7804 69.7101 32.7804 69.7101 32.6629 69.7101C32.7804 69.1233 32.6629 68.4192 32.1929 67.8324L32.0754 67.4803C31.9579 67.2456 31.7229 66.8935 31.7229 66.6588C31.7229 66.072 31.253 65.6026 30.6655 65.6026C30.078 65.6026 29.6081 66.0721 29.6081 66.7762C29.6081 67.5977 29.9605 68.1845 30.1955 68.6539L30.313 68.8886C30.4305 69.2407 30.548 69.358 30.548 69.358C30.548 69.358 30.313 69.4754 30.1955 69.5928L29.9605 69.7101C27.9632 69.7101 26.3183 70.0622 25.0259 70.7663C23.4985 71.5878 22.441 72.9961 21.6186 74.287C21.6186 74.287 21.6186 74.287 21.5011 74.287L21.2661 65.72C21.2661 65.72 21.2661 65.72 21.3836 65.72C22.5585 65.4853 23.7334 65.3679 25.0259 65.1332C25.1434 65.2506 25.2609 65.2505 25.3783 65.2505C25.4958 65.2505 25.4958 65.2505 25.6133 65.2505C25.9658 65.2505 26.3183 65.0158 26.5533 64.7811C27.1407 64.6638 27.6107 64.5464 28.1982 64.4291C28.3157 64.4291 28.3157 64.4291 28.4331 64.4291C28.6681 64.4291 28.9031 64.3117 29.1381 64.1943C30.313 63.9596 31.3705 63.6076 32.5454 63.2555C33.1328 63.0208 33.4853 62.434 33.2503 61.8472C33.0153 61.2604 32.4279 60.9083 31.8404 61.1431C31.4879 61.2604 31.018 61.3778 30.6655 61.4951L31.1355 60.5563C31.3705 59.9695 31.253 59.3827 30.6655 59.0306C30.078 58.7959 29.4906 58.9133 29.1381 59.5001L27.4932 62.1993C27.2582 62.3166 26.9057 62.3166 26.6708 62.434C26.5533 61.7298 26.4358 61.0257 26.2008 60.4389C25.9658 59.8521 25.2609 59.6174 24.7909 59.8521C24.2034 60.0868 23.9684 60.791 24.2034 61.2604C24.4384 61.7298 24.5559 62.3166 24.5559 62.9034C23.4985 63.1381 22.3235 63.3728 21.2661 63.4902V58.0918C21.2661 58.0918 21.2661 58.0918 21.3836 58.0918C21.6186 58.0918 21.7361 58.0918 21.9711 57.9744C22.911 57.3876 24.2034 57.2703 25.4958 57.1529C27.1407 57.0356 28.7856 56.8008 30.1955 55.862C30.6655 55.5099 30.783 54.8058 30.4305 54.3363C30.078 53.8669 29.3731 53.7496 28.9031 54.1016C28.5506 54.3363 28.0807 54.5711 27.6107 54.6884C27.7282 54.1016 27.8457 53.3975 27.6107 52.8107C27.3757 52.2239 26.7882 51.8719 26.2008 52.1066C25.6133 52.3413 25.2609 52.9281 25.4958 53.5148C25.6133 53.9843 25.4958 54.5711 25.0259 54.8058C24.9084 54.9231 24.7909 55.0405 24.6734 55.1578C23.4985 55.2752 22.3235 55.3926 21.2661 55.9793V51.6371C21.5011 51.6371 21.6186 51.5198 21.8536 51.4024C22.911 50.4636 23.7334 49.4074 24.4384 48.2338C24.7909 47.647 24.5559 47.0602 23.9684 46.7081C23.381 46.3561 22.7935 46.5908 22.441 47.1776C22.0886 47.7644 21.7361 48.3511 21.2661 48.9379V47.9991C21.2661 47.4123 20.7961 46.9429 20.2087 46.9429C19.6212 46.9429 19.1512 47.4123 19.1512 48.1164V52.3413C18.4463 51.8719 17.7413 51.4024 17.2714 50.6983C16.9189 50.2289 16.2139 50.1115 15.744 50.4636C15.274 50.8156 15.1565 51.5198 15.509 51.9892C16.4489 53.1628 17.7413 54.219 19.1512 54.8058V59.148C19.0338 59.148 19.0338 59.148 18.9163 59.0306H18.6813C18.6813 58.9133 18.6813 58.9133 18.6813 58.7959L18.2113 57.0356C18.0938 56.4488 17.3889 56.0967 16.8014 56.2141C16.2139 56.3314 15.8615 57.0356 15.979 57.6223L16.3314 58.7959L15.744 58.6786C15.274 57.7397 15.039 56.8008 14.9215 55.7446C14.9215 55.1578 14.3341 54.6884 13.7466 54.6884C13.1591 54.6884 12.6892 55.2752 12.6892 55.862C12.8067 56.6835 12.9242 57.505 13.1591 58.3265L9.1644 57.9744C8.57694 57.8571 7.98948 58.3265 7.98948 59.0306C7.87199 59.6174 8.34196 60.2042 9.04691 60.2042L14.6865 60.791C14.804 60.791 14.9215 60.791 15.039 60.791L18.6813 61.1431H18.7988C18.9163 61.1431 19.0338 61.1431 19.1512 61.0257L19.2687 73.7003C19.1512 73.7003 18.9163 73.5829 18.7988 73.4655C18.3288 73.2308 17.3889 72.644 17.0364 71.8225C17.0364 71.7052 16.9189 71.5878 16.9189 71.3531C16.8014 71.001 16.6839 70.5316 16.4489 70.1795C16.8014 68.7713 16.6839 67.1283 15.979 65.8373C15.744 65.2505 15.039 65.1332 14.4516 65.3679C13.8641 65.6026 13.7466 66.3068 13.9816 66.8935C14.3341 67.5977 14.4516 68.3018 14.4516 69.1233C13.8641 69.1233 13.3941 69.1233 12.8067 69.2407C12.2192 69.358 11.5142 69.358 11.1618 69.1233C11.0443 69.006 10.9268 68.8886 10.8093 68.7713C10.5743 68.5365 10.3393 68.3018 9.98685 68.0671C10.1043 67.9498 10.1043 67.715 10.2218 67.5977C10.4568 66.7762 10.3393 65.8373 9.86936 65.0158C9.51688 64.3117 9.04691 63.8423 8.57694 63.3728C8.10697 62.9034 7.40202 62.9034 7.04954 63.3728C6.57957 63.8423 6.57957 64.5464 7.04954 64.8985C7.40202 65.2506 7.75449 65.72 7.98948 66.072C8.10697 66.4241 8.22446 66.7762 8.10697 67.0109C8.10697 67.1283 7.98948 67.2456 7.98948 67.363C7.87199 67.4803 7.87199 67.5977 7.87199 67.715L1.17492 66.7762C0.587462 66.7762 0 67.1283 0 67.8324C0 68.4192 0.352477 69.006 1.05743 69.006L7.87199 69.5928C8.10697 69.8275 8.34196 69.9448 8.57694 69.9448C8.69443 69.9448 8.69443 69.9448 8.69443 69.9448C8.81192 69.9448 8.81192 70.0622 8.92942 70.1795C9.1644 70.1795 9.39939 70.4143 9.63437 70.649C10.5743 71.2358 11.7492 71.1184 12.6892 71.001C13.5116 70.8837 13.9816 70.8837 14.2166 71.1184C14.3341 71.2358 14.4516 71.4705 14.4516 71.8225C14.569 72.0573 14.569 72.1746 14.6865 72.4093C15.1565 73.5829 16.2139 74.6391 17.6238 75.3432C18.0938 75.578 18.5638 75.6953 19.0338 75.8127V81.3285C17.3889 80.2723 15.509 79.4508 13.9816 78.9813C14.4516 77.3383 13.9816 75.4606 12.6892 74.4044C12.2192 73.935 11.5142 74.0523 11.1618 74.5218C10.6918 74.9912 10.8093 75.6953 11.2793 76.0474C11.8667 76.6342 12.1017 77.573 11.9842 78.3945C11.5142 78.2772 11.1618 78.1598 10.9268 78.1598C10.2218 78.0425 9.51688 77.9251 8.81192 77.8078C8.57694 77.4557 8.34196 76.8689 8.10697 76.0474C8.10697 75.8127 7.98948 75.578 7.98948 75.3432C7.87199 74.5217 7.75449 73.7003 7.28452 72.8788C6.81455 71.7052 5.63963 70.4143 3.99474 70.4143C3.40728 70.4143 2.81982 70.8837 2.81982 71.4705C2.81982 72.0573 3.28979 72.644 3.87725 72.644C4.46471 72.644 4.93468 73.2308 5.16966 73.8176C5.40465 74.4044 5.52214 75.1085 5.63963 75.8127C5.63963 76.0474 5.75712 76.2821 5.75712 76.6342C5.75712 76.8689 5.87462 77.221 5.99211 77.573C4.34722 77.221 3.0548 76.6342 2.23235 75.8127C1.76238 75.3433 1.05743 75.3433 0.704954 75.8127C0.234985 76.2821 0.234985 76.9863 0.704954 77.3383C1.87988 78.5119 3.40728 79.216 5.52214 79.6855C6.22709 79.8028 6.93205 79.9202 7.637 80.0375C7.87199 80.1549 7.98948 80.2722 8.22446 80.2722C8.34196 80.2722 8.45945 80.2723 8.57694 80.1549C9.1644 80.2723 9.75186 80.2722 10.2218 80.3896C12.9242 80.9764 16.5664 82.2673 18.9163 84.2624L19.1512 113.602C19.1512 114.188 19.6212 114.658 20.2087 114.658C20.7961 114.658 21.2661 114.188 21.2661 113.484L21.1486 97.7584C21.3836 97.7584 21.6186 97.6411 21.7361 97.5237L24.3209 95.7634C24.7909 95.4113 24.9084 94.7072 24.5559 94.2377C24.2034 93.7683 23.4985 93.6509 23.0285 94.003L21.1486 95.2939L21.0311 84.3797C21.9711 84.0277 23.0285 83.6756 23.9684 83.0888C23.9684 83.2062 24.0859 83.3235 24.2034 83.3235C24.9084 83.9103 25.4958 84.6145 26.0833 85.436C26.3183 85.788 26.6708 86.0227 27.0232 86.0227C27.2582 86.0227 27.3757 86.0227 27.6107 85.9054C28.0807 85.5533 28.3157 84.8492 27.9632 84.3797C27.3757 83.4409 26.6708 82.502 25.7308 81.7979C25.7308 81.7979 25.7308 81.7979 25.8483 81.6805L26.0833 81.4458C26.3183 81.2111 26.4358 80.9764 26.5533 80.9764C26.7883 80.859 27.2582 81.0938 27.8457 81.3285C28.1982 81.4458 28.4331 81.5632 28.7856 81.6805C30.9005 82.2673 32.7804 81.3285 34.6602 80.3896C35.2477 80.1549 35.3652 79.4507 35.1302 78.864C35.1302 78.1598 34.4253 77.9251 33.9553 78.1598Z" fill="#191919"/>
<path d="M164.254 104.682L162.139 57.7397C162.139 56.214 160.964 53.5148 159.437 51.8718C158.732 51.0503 157.91 50.6982 157.322 50.6982L120.195 51.5197C117.962 51.5197 116.082 53.3975 116.082 55.6272L117.022 109.259C117.022 110.081 117.14 110.668 117.492 110.902C117.962 111.254 118.785 111.254 119.96 111.137C120.312 111.137 120.665 111.137 121.017 111.02L131.709 111.607V106.208C131.356 105.621 131.004 105.152 130.651 104.565L129.124 105.387C129.007 105.504 128.772 105.504 128.654 105.504C128.302 105.504 128.067 105.387 127.949 105.035C127.832 104.8 127.832 104.565 127.832 104.33C127.949 104.096 128.067 103.978 128.302 103.861L129.477 103.157C129.242 102.922 129.007 102.687 128.654 102.453L127.127 103.392C127.009 103.509 126.774 103.509 126.657 103.509C126.304 103.509 126.069 103.392 125.952 103.039C125.834 102.805 125.834 102.57 125.834 102.335C125.952 102.101 126.069 101.983 126.304 101.866L127.244 101.279C127.009 101.162 126.892 101.044 126.657 100.927L124.894 101.866C124.894 101.866 124.777 101.983 124.659 101.983C124.307 101.983 124.072 101.866 123.954 101.514C123.837 101.396 123.837 101.162 123.837 100.927C123.837 100.692 124.072 100.458 124.307 100.34L125.129 99.8708C124.307 99.4014 123.719 99.1667 123.719 99.1667H123.602V99.0493C123.132 98.6973 123.014 98.3452 123.249 97.8758C123.367 97.4063 123.837 97.1716 124.307 97.289H124.424C124.424 97.289 124.542 97.289 124.659 97.4063H124.777C125.012 97.5237 125.247 97.641 125.599 97.8758L125.364 97.289C125.247 96.9369 125.364 96.4675 125.834 96.1154H125.952C126.187 95.998 126.422 96.1154 126.657 96.2328C126.892 96.3501 127.009 96.4675 127.009 96.7022L127.597 98.2278V98.1105C127.714 97.8758 127.832 97.7584 128.067 97.7584C128.302 97.641 128.537 97.641 128.772 97.7584C128.889 97.8758 129.124 97.9931 129.124 98.3452L129.712 99.9882C129.829 99.8708 129.947 99.7535 130.064 99.7535C130.534 99.6361 131.004 99.8708 131.121 100.34L132.179 103.039V95.0592C131.826 94.4724 131.474 94.003 131.121 93.4162L129.477 94.355H129.124C128.772 94.355 128.537 94.2377 128.419 93.8856C128.302 93.7683 128.302 93.5335 128.302 93.2988C128.302 93.0641 128.537 92.8294 128.772 92.712L130.064 92.0079C129.829 91.7732 129.594 91.5385 129.242 91.3038L127.597 92.1253C127.479 92.2426 127.244 92.2426 127.127 92.2426C126.774 92.2426 126.539 92.1253 126.422 91.7732C126.304 91.5385 126.304 91.3038 126.304 91.069C126.422 90.8343 126.539 90.717 126.774 90.5996L127.714 90.1302C127.479 90.0128 127.244 89.7781 127.127 89.6608L125.482 90.5996C125.364 90.717 125.129 90.717 125.012 90.717C124.659 90.717 124.424 90.5996 124.307 90.2476C124.189 90.0128 124.189 89.7781 124.189 89.5434C124.307 89.3087 124.424 89.1913 124.659 89.074L125.482 88.6046C124.542 88.1351 123.954 87.9004 123.954 87.9004C123.719 87.7831 123.484 87.6657 123.367 87.3136C123.249 87.0789 123.367 86.8442 123.484 86.6095C123.602 86.3748 123.719 86.1401 123.954 86.1401C124.189 86.0227 124.424 86.1401 124.542 86.2574C124.659 86.2574 125.129 86.4921 125.717 86.7268L125.482 86.0227C125.364 85.5533 125.599 85.0838 126.069 84.9665C126.304 84.8491 126.539 84.8491 126.657 84.9665C126.892 85.0838 127.009 85.2012 127.127 85.4359L127.714 86.9616C127.832 86.7268 127.949 86.4921 128.302 86.4921C128.772 86.3748 129.242 86.6095 129.359 87.0789L129.947 88.7219C130.064 88.6046 130.182 88.4872 130.299 88.4872C130.769 88.3698 131.239 88.6046 131.356 89.074L132.296 91.7732C132.649 92.1253 132.884 92.5947 133.236 92.9468C133.824 91.4211 134.294 89.1913 134.529 86.4921V86.3748C134.646 85.5533 134.646 84.6144 134.646 83.5582L132.414 81.7978H129.477C129.007 81.7978 128.537 81.4458 128.537 80.859C128.537 80.3896 129.007 79.9201 129.477 79.9201H130.182L128.302 78.3945C128.067 78.1598 127.949 77.9251 127.949 77.6903C127.949 77.4556 128.067 77.3383 128.184 77.2209C128.537 76.8689 129.007 76.7515 129.477 77.1036L131.709 78.8639L131.474 76.9862C131.474 76.7515 131.591 76.3994 131.709 76.2821C131.826 76.1647 132.061 76.0474 132.179 76.0474C132.414 75.93 132.649 76.0474 132.884 76.1647C133.119 76.2821 133.119 76.5168 133.119 76.8689L133.589 80.3896L134.646 81.2111C134.646 78.2771 134.529 75.4606 134.411 73.5829L132.061 70.2969C131.709 69.8274 131.826 69.2406 132.296 69.0059C132.531 68.8886 132.766 68.7712 133.119 68.8886C133.354 69.0059 133.471 69.1233 133.589 69.358L134.411 70.5316C134.529 70.2969 134.764 70.1795 134.999 70.1795C135.234 70.1795 135.351 70.1795 135.586 70.2969C135.704 70.4142 135.821 70.5316 135.939 70.7663L136.996 69.2406C137.114 69.0059 137.349 68.8886 137.584 68.8886C137.819 68.8886 138.053 68.8886 138.288 69.0059C138.641 69.358 138.758 69.8274 138.523 70.2969L136.291 73.4655C136.409 74.4044 136.409 76.0474 136.526 77.8077L137.584 76.9862L138.053 73.2308C138.171 72.7614 138.641 72.5266 138.993 72.5266H139.111C139.581 72.644 139.933 73.1134 139.816 73.5829L139.581 75.3432L141.696 73.5829C141.931 73.4655 142.166 73.3481 142.401 73.3481C142.636 73.3481 142.871 73.4655 142.988 73.7002C143.223 74.0523 143.223 74.5217 142.871 74.8738L140.873 76.5168H141.696C142.283 76.5168 142.636 76.8689 142.636 77.4556C142.636 77.9251 142.283 78.3945 141.696 78.3945H138.641L136.526 80.0375C136.526 81.0937 136.526 82.0326 136.526 82.9714C136.526 83.0888 136.526 83.2061 136.526 83.4408C136.526 84.0276 136.526 84.6144 136.409 85.2012L137.466 84.7318L137.819 81.4458C137.819 81.2111 137.936 80.9764 138.171 80.859C138.406 80.7416 138.523 80.7416 138.758 80.7416C138.993 80.7416 139.228 80.859 139.346 81.0937C139.463 81.3284 139.463 81.5631 139.463 81.7978L139.228 84.0276L139.933 83.6756L140.286 80.3896C140.403 79.9201 140.873 79.6854 141.226 79.6854C141.461 79.6854 141.696 79.8028 141.813 80.0375C141.931 80.2722 142.048 80.5069 141.931 80.7416L141.696 82.9714L143.811 82.0326C143.928 81.9152 144.163 81.9152 144.398 82.0326C144.633 82.1499 144.868 82.2673 144.986 82.6193C145.103 83.0888 144.986 83.4408 144.633 83.7929L142.518 84.7318L143.811 85.6706C144.046 85.788 144.163 86.0227 144.163 86.2574C144.163 86.4921 144.163 86.7268 144.046 86.9616V87.0789H143.928H143.811C143.693 87.1963 143.576 87.1963 143.341 87.1963C143.223 87.1963 142.871 87.1963 142.753 86.9616L140.638 85.4359L139.933 85.6706L141.343 86.6095C141.696 86.9616 141.813 87.431 141.461 87.7831C141.343 88.0178 140.991 88.1351 140.756 88.1351C140.638 88.1351 140.521 88.1351 140.521 88.0178H140.403L140.286 87.9004L138.053 86.2574L136.174 87.0789C135.821 90.717 135.116 93.4162 134.176 95.0592V99.284C134.176 99.284 134.176 99.284 134.294 99.1667L135.351 96.3501C135.469 95.8807 135.939 95.646 136.409 95.7633H136.526C136.644 95.8807 136.761 95.998 136.879 95.998L137.466 94.2377C137.584 93.7683 138.053 93.5336 138.523 93.6509C138.758 93.6509 138.876 93.8856 138.993 94.003V94.1203L139.581 92.712C139.698 92.4773 139.816 92.36 139.933 92.2426C140.168 92.1253 140.403 92.1253 140.638 92.1253C140.873 92.2426 140.991 92.36 141.108 92.5947C141.226 92.8294 141.226 93.0641 141.226 93.2988L140.991 93.8856C141.696 93.5335 142.048 93.4162 142.166 93.4162C142.636 93.2988 143.106 93.4162 143.223 93.8856C143.341 94.1203 143.341 94.355 143.223 94.5898C143.106 94.8245 142.988 95.0592 142.636 95.1765H142.518C142.518 95.1765 142.518 95.1765 142.401 95.1765C142.166 95.2939 141.696 95.5286 140.991 95.8807L141.813 96.3501C141.931 96.3501 142.166 96.5848 142.166 96.8195C142.283 97.0543 142.166 97.4063 142.048 97.641C141.931 97.8758 141.578 98.1105 141.343 98.1105C141.226 98.1105 140.991 98.1105 140.873 97.9931L139.228 97.1716C138.993 97.289 138.876 97.4063 138.641 97.5237L139.581 97.9931C140.051 98.2278 140.168 98.6973 140.051 99.1667L139.933 99.284C139.698 99.5188 139.346 99.6361 139.111 99.6361H138.758L136.996 98.6973C136.761 98.932 136.526 99.1667 136.291 99.4014L137.466 99.9882C137.701 100.106 137.936 100.458 137.936 100.692C137.936 100.927 137.936 101.044 137.819 101.162C137.701 101.396 137.466 101.631 137.114 101.631C136.996 101.631 136.879 101.631 136.879 101.514H136.761H136.644L135.116 100.692C134.646 101.279 134.294 101.749 134.059 102.335V111.489L150.743 112.311V106.091C148.275 108.79 144.516 109.025 142.988 109.025C142.518 109.025 142.283 109.025 142.283 109.025C141.813 109.025 141.461 108.555 141.461 108.086C141.461 107.616 141.931 107.264 142.283 107.264C142.283 107.264 142.283 107.264 142.401 107.264C142.636 107.264 144.163 107.382 145.925 106.912C148.275 106.325 149.92 104.917 150.625 102.922V98.932C148.275 101.279 144.868 101.396 143.928 101.396C143.811 101.396 143.576 101.396 143.576 101.396C143.106 101.396 142.753 100.927 142.753 100.458C142.753 100.223 142.871 99.9882 142.988 99.8708C143.106 99.7535 143.341 99.6361 143.576 99.6361C143.811 99.6361 148.863 99.9882 150.508 95.7633V91.7732C148.393 93.7683 145.221 93.7683 145.103 93.7683C144.868 93.7683 144.633 93.6509 144.516 93.5335C144.398 93.4162 144.281 93.1815 144.281 92.9468C144.281 92.4773 144.633 92.1253 145.103 92.1253C145.221 92.1253 149.215 92.1253 150.508 88.9566V86.0227C148.98 87.3136 147.1 87.431 146.983 87.431C146.748 87.431 146.513 87.431 146.395 87.1963C146.16 87.0789 146.043 86.8442 146.043 86.6095C146.043 86.1401 146.395 85.6706 146.865 85.6706C146.865 85.6706 149.803 85.3186 150.625 83.0888C150.625 82.9714 150.625 82.9714 150.743 82.9714C150.743 82.9714 150.743 82.8541 150.86 82.8541L150.978 82.7367C150.978 82.7367 151.095 82.7367 151.095 82.6193H151.213H151.33C151.448 82.6193 151.448 82.6193 151.448 82.6193H151.565C151.565 82.6193 151.565 82.6193 151.683 82.6193C151.683 82.6193 151.8 82.6193 151.8 82.7367C151.8 82.7367 151.918 82.7367 151.918 82.8541L152.035 82.9714C152.035 83.0888 152.153 83.0888 152.153 83.0888C152.975 85.3186 155.912 85.788 155.912 85.788C156.382 85.788 156.735 86.2574 156.617 86.7268C156.617 86.9616 156.5 87.1963 156.265 87.3136C156.03 87.431 155.912 87.5483 155.677 87.5483C155.56 87.5483 153.68 87.3136 152.153 86.1401V89.074C153.445 92.2426 157.44 92.2426 157.557 92.2426C158.027 92.2426 158.38 92.5947 158.38 93.0641C158.38 93.2988 158.262 93.5336 158.145 93.6509C158.027 93.7683 157.792 93.8856 157.557 93.8856C157.44 93.8856 154.385 93.8856 152.153 91.8906V96.2328C153.797 100.34 159.085 100.106 159.085 100.106C159.32 100.106 159.555 100.223 159.672 100.34C159.79 100.458 159.907 100.692 159.907 100.927C159.907 101.162 159.79 101.396 159.672 101.514C159.555 101.631 159.32 101.749 159.085 101.749C159.085 101.749 158.967 101.749 158.732 101.749C157.675 101.749 154.267 101.514 152.035 99.284V103.274C152.858 105.269 154.385 106.678 156.735 107.264C158.497 107.734 160.142 107.616 160.26 107.616C160.495 107.616 160.729 107.616 160.847 107.851C161.082 107.968 161.082 108.203 161.199 108.438C161.199 108.907 160.847 109.377 160.377 109.377C160.377 109.377 160.025 109.377 159.672 109.377C158.145 109.377 154.385 109.142 151.918 106.443V112.663L161.317 113.132C162.962 113.015 164.254 106.678 164.254 104.682Z" fill="#191919"/>
<path d="M178.471 112.311H181.173L181.878 33.6814H179.411L178.471 112.311Z" fill="#191919"/>
<path d="M186.934 33.6099L186.462 113.882L189.047 113.897L189.519 33.625L186.934 33.6099Z" fill="#191919"/>
<path d="M197.152 33.6814V34.0335L196.682 112.076V113.954H194.097V112.076L194.567 34.0335V33.6814H197.152Z" fill="#191919"/>
<path d="M170.724 33.5874L169.508 113.852L172.093 113.891L173.309 33.6265L170.724 33.5874Z" fill="#191919"/>
<path d="M165.664 107.968C165.547 109.494 165.194 110.902 164.607 112.193C164.372 112.663 164.137 113.132 163.784 113.602C163.549 113.954 163.197 114.188 162.727 114.188C162.492 114.188 162.257 114.071 162.022 113.954C161.787 113.719 161.552 113.484 161.552 113.132C161.434 112.78 161.552 112.428 161.669 112.193C161.669 112.193 161.669 112.193 161.669 112.076C162.492 110.902 162.962 109.494 163.079 107.851C163.549 101.631 163.549 93.1814 163.314 84.497V84.3796C163.197 81.4457 163.079 78.5118 162.962 75.6952C162.962 75.5779 162.962 75.5779 162.962 75.4605C162.492 68.1844 161.787 61.2603 160.964 56.0966C160.377 53.0453 157.675 50.8155 154.502 50.9329C152.153 51.0502 150.038 51.0502 147.805 51.1676C147.57 51.4023 147.218 51.5197 146.983 51.5197C146.748 51.5197 146.395 51.4023 146.278 51.285C136.879 51.7544 128.537 52.2238 120.312 52.8106L117.727 52.9279L118.197 111.02V111.254C118.197 111.959 117.61 112.545 116.905 112.545C116.2 112.545 115.612 111.959 115.612 111.254V110.902L115.142 53.0453C110.208 53.0453 105.508 53.0453 101.043 53.1627C89.0592 53.28 77.6624 53.3974 61.801 51.8717C61.331 51.8717 60.861 51.7544 60.2736 51.7544C59.8036 51.7544 59.4511 51.4023 59.2161 50.9329C59.0986 50.6982 59.0986 50.5808 59.0986 50.3461C59.0986 50.2287 59.2161 49.994 59.2161 49.8767C59.4511 49.4072 59.9211 49.1725 60.5085 49.1725C60.9785 49.1725 61.331 49.2899 61.801 49.2899C63.9158 49.5246 65.9132 49.642 67.7931 49.8767L68.263 35.5591V35.0897C68.263 34.3855 68.8505 33.7988 69.5555 33.7988C70.2604 33.7988 70.8479 34.3855 70.8479 35.0897V35.4418L70.3779 49.994C72.1403 50.1114 73.7852 50.2287 75.4301 50.3461L75.9 35.207V34.855C75.9 34.1508 76.4875 33.564 77.1924 33.564C77.8974 33.564 78.4849 34.1508 78.4849 34.855V35.0897L78.0149 50.2287C79.7773 50.3461 81.4222 50.3461 83.0671 50.3461L83.537 34.9723V34.7376C83.537 34.0335 84.1245 33.4467 84.8294 33.4467C85.5344 33.4467 86.1219 34.0335 86.1219 34.7376V34.855L85.7694 50.5808C87.5318 50.5808 89.1767 50.5808 90.8216 50.5808L91.2915 35.0897V34.7376C91.2915 34.0335 91.879 33.4467 92.5839 33.4467C93.2889 33.4467 93.8764 34.0335 93.8764 34.7376V34.9723L93.4064 50.5808C95.5213 50.5808 97.6361 50.5808 99.751 50.5808L100.221 34.9723C100.221 34.2682 100.808 33.6814 101.513 33.6814C102.218 33.6814 102.688 34.2682 102.806 34.855V34.9723L102.336 50.4635C103.981 50.4635 105.743 50.4635 107.388 50.4635L107.858 34.9723V34.855C107.975 34.1508 108.445 33.6814 109.15 33.6814C109.738 33.6814 110.325 34.1508 110.325 34.855C110.325 34.9723 110.325 34.9723 110.325 35.0897L109.973 50.4635C111.618 50.4635 113.38 50.4635 115.025 50.4635L115.495 34.7376V34.5029C115.73 34.6203 115.965 34.7376 116.2 34.7376C116.905 34.7376 117.492 34.1508 117.492 33.4467V32.6252C117.845 32.8599 118.08 33.3293 118.08 33.7988V34.7376L117.61 50.4635L119.96 50.3461C120.9 50.2287 121.722 50.2287 122.662 50.1114L123.132 34.7376V33.7988C123.132 33.0946 123.719 32.5078 124.424 32.5078C125.129 32.5078 125.717 33.0946 125.717 33.7988V34.6203L125.247 49.8767C126.892 49.7593 128.654 49.642 130.299 49.5246L130.769 34.5029V33.564C130.769 32.8599 131.356 32.2731 132.061 32.2731C132.766 32.2731 133.354 32.8599 133.354 33.564V34.3855L132.884 49.2899C134.529 49.1725 136.291 49.0552 138.053 48.9378L138.523 34.2682V33.4467C138.523 32.7425 139.111 32.1558 139.816 32.1558C140.521 32.1558 141.108 32.7425 141.108 33.4467V34.1508L140.638 48.7031C142.283 48.5857 144.046 48.5857 145.69 48.4684L146.16 34.1508V33.4467C146.16 32.7425 146.748 32.1558 147.453 32.1558C148.158 32.1558 148.745 32.7425 148.745 33.4467V34.0335L148.393 48.351C150.038 48.2337 151.683 48.2337 153.445 48.1163L153.915 34.0335V33.4467C153.915 32.7425 154.502 32.1558 155.207 32.1558C155.912 32.1558 156.5 32.7425 156.5 33.4467V33.9161L156.03 48.1163C158.732 48.4684 161.199 50.1114 162.609 52.5759L162.844 33.9161V33.4467H165.429V33.9161L165.077 67.3629C166.134 80.8589 166.369 97.641 165.664 107.968Z" fill="#191919"/>
<path d="M266.708 112.78L266.59 113.954H265.415C249.084 114.071 234.28 114.188 221.356 114.423C214.776 114.541 208.549 114.541 202.439 114.658C202.087 114.658 201.617 114.658 201.264 114.658H199.854C196.917 114.658 193.157 114.658 189.398 114.775C180.821 114.775 171.891 114.775 170.716 114.775C169.306 114.775 154.267 114.658 154.267 114.658C125.834 114.306 97.7536 112.898 63.4458 110.316C61.2135 110.198 59.5686 108.438 59.3336 106.208C59.2161 104.683 59.0986 102.922 58.9811 101.279L61.4485 99.8709C61.566 101.983 61.6835 103.978 61.801 105.973C61.9184 106.912 62.6234 107.616 63.5633 107.734C82.3621 109.142 99.281 110.198 115.377 110.902C115.965 110.902 116.67 111.02 117.257 111.02C117.492 111.02 117.727 111.02 117.845 111.02C118.667 111.02 119.49 111.137 120.312 111.137H120.43C121.252 111.137 122.075 111.255 122.897 111.255H123.014C125.834 111.372 128.537 111.489 131.356 111.607C131.944 111.607 132.531 111.607 133.119 111.607C138.758 111.724 144.281 111.959 149.803 111.959C150.39 111.959 150.978 111.959 151.565 111.959C152.388 111.959 153.327 111.959 154.15 111.959C154.15 111.959 157.675 111.959 161.434 111.959C161.669 111.959 161.904 111.959 162.139 111.959C162.844 111.959 163.667 111.959 164.372 111.959C166.369 111.959 168.132 111.959 169.306 111.959H171.891C174.006 111.959 176.121 111.959 178.353 111.959C179.176 111.959 180.116 111.959 181.056 111.959C182.818 111.959 184.58 111.959 186.343 111.959C187.165 111.959 187.988 111.959 188.928 111.959H189.398C190.925 111.959 192.452 111.959 193.98 111.959C194.802 111.959 195.625 111.959 196.565 111.959C197.622 111.959 198.797 111.959 199.972 111.959C200.324 111.959 200.794 111.959 201.147 111.959C201.617 111.959 202.087 111.959 202.439 111.959C208.431 111.959 214.658 111.841 221.121 111.724C233.81 111.607 248.144 111.372 264.123 111.255C264.24 109.612 264.358 107.851 264.475 106.091C251.199 107.734 237.922 108.555 224.528 108.555C217.243 108.555 209.959 108.321 202.674 107.851H202.557L202.674 105.621H202.792C223.353 107.03 244.149 106.443 264.593 103.861C265.885 78.2772 264.945 41.3097 264.828 34.151C259.071 34.151 234.397 34.0336 206.786 34.0336H204.202C201.852 34.0336 199.384 34.0336 196.917 34.0336H194.332C192.57 34.0336 190.925 34.0336 189.28 34.0336C188.458 34.0336 187.518 34.0336 186.695 34.0336H179.176C177.061 34.0336 175.064 34.0336 173.066 34.0336C172.244 34.0336 171.304 34.0336 170.481 34.0336H170.011C168.719 34.0336 166.957 34.0336 164.959 34.0336C164.137 34.0336 163.314 34.0336 162.374 34.0336C160.494 34.0336 158.262 34.0336 156.03 34.0336C155.207 34.0336 154.385 34.0336 153.445 34.0336C151.8 34.0336 150.155 34.0336 148.275 34.0336C147.453 34.0336 146.63 34.0336 145.69 34.0336C144.046 34.0336 142.283 34.0336 140.638 34.151C139.816 34.151 138.876 34.151 138.053 34.151C136.409 34.151 134.646 34.151 133.001 34.2683C132.179 34.2683 131.239 34.2683 130.416 34.2683C128.772 34.2683 127.009 34.2683 125.364 34.2683C124.542 34.2683 123.602 34.2683 122.779 34.2683C121.135 34.2683 119.372 34.2683 117.727 34.3857C117.14 34.3857 116.552 34.3857 115.847 34.3857C115.612 34.3857 115.377 34.3857 115.142 34.3857C113.38 34.3857 111.735 34.3857 110.09 34.503C109.268 34.503 108.445 34.503 107.623 34.503C105.861 34.503 104.216 34.503 102.453 34.6204C101.631 34.6204 100.808 34.6204 99.8685 34.6204C97.7536 34.6204 95.5212 34.6204 93.5239 34.7378C92.7014 34.7378 91.7615 34.7378 90.9391 34.7378C89.1767 34.7378 87.5318 34.7378 85.8869 34.8551C85.0644 34.8551 84.1245 34.8551 83.3021 34.8551C81.5397 34.8551 79.7773 34.8551 78.2499 34.9725C77.3099 34.9725 76.4875 34.9725 75.6651 34.9725C73.7852 34.9725 72.1403 34.9725 70.6129 35.0898C69.6729 35.0898 68.8505 35.0898 68.028 35.0898C65.4432 35.0898 63.4458 35.2072 62.2709 35.2072C62.1534 37.437 61.801 42.366 61.566 48.9379C61.566 49.29 61.566 49.7594 61.566 50.1115C61.566 50.5809 61.566 51.0504 61.566 51.5198C61.331 57.9744 61.096 65.2506 60.9785 72.7614C60.9785 73.5829 59.9211 73.8176 59.5686 73.1135L58.7462 71.7052C58.6287 71.4705 58.5112 71.1184 58.5112 70.8837C58.6287 63.6076 58.8636 56.5662 59.0986 50.4636C59.0986 50.3462 59.0986 50.1115 59.0986 49.8768C59.0986 49.6421 59.0986 49.5247 59.0986 49.29C59.4511 40.1362 59.9211 33.6815 59.9211 33.6815L60.0386 32.508H61.2135C61.6835 32.508 87.7668 32.1559 114.672 31.8038C115.495 31.8038 116.435 31.8038 117.257 31.8038C139.463 31.4518 161.669 31.217 170.129 31.217C176.356 31.217 182.818 31.217 189.398 31.217C194.45 31.217 199.502 31.217 204.437 31.217H207.021C238.274 31.217 265.885 31.3344 266.12 31.3344H267.295V32.508C267.413 33.4468 269.057 85.2013 266.708 112.78Z" fill="#191919"/>
<path d="M65.3257 92.7122C64.8558 92.3601 64.1508 92.3601 63.7983 92.9469C61.096 96.3503 56.0438 98.5801 50.4042 98.9321V94.4726C56.0438 94.2378 61.096 91.8907 63.9158 88.37C64.2683 87.9006 64.2683 87.1964 63.6808 86.8444C63.2109 86.4923 62.5059 86.4923 62.1534 87.0791C59.6861 90.1303 55.3389 92.1254 50.4042 92.3601V87.9006C54.8689 87.6659 58.9811 85.7881 61.331 82.8542C61.6835 82.3848 61.6835 81.6806 61.096 81.3286C60.626 80.9765 59.9211 80.9765 59.5686 81.5633C57.6887 83.9104 54.2815 85.4361 50.4042 85.6708V80.9765C53.694 80.7418 56.7488 79.3335 58.3937 77.2211C58.7462 76.7517 58.7462 76.0475 58.1587 75.6954C57.6887 75.3434 56.9838 75.3434 56.6313 75.9301C55.3389 77.5731 52.989 78.6294 50.4042 78.8641V74.8739C52.8715 74.6392 54.9864 73.583 56.2788 71.94C56.6313 71.4706 56.6313 70.7664 56.0438 70.4144C55.5739 70.0623 54.8689 70.0623 54.5164 70.6491C53.694 71.7053 52.1666 72.4094 50.4042 72.6442V68.0672C52.1666 67.8325 53.694 67.011 54.6339 65.8374C54.9864 65.368 54.9864 64.6639 54.3989 64.3118C53.929 63.9597 53.224 63.9597 52.8715 64.5465C52.4016 65.1333 51.4616 65.7201 50.4042 65.8374V60.439C50.4042 59.8522 49.9342 59.3828 49.3468 59.3828C48.7593 59.3828 48.1719 59.8522 48.1719 60.439V65.8374C47.1144 65.6027 46.1745 65.1333 45.7045 64.5465C45.352 64.0771 44.6471 63.9597 44.1771 64.3118C43.7071 64.6639 43.5897 65.368 43.9421 65.8374C44.8821 67.011 46.4095 67.8325 48.1719 68.0672V72.5268C46.4095 72.2921 44.8821 71.5879 44.0596 70.5317C43.7071 70.0623 43.0022 69.9449 42.5322 70.297C42.0623 70.6491 41.9448 71.3532 42.2972 71.8227C43.5897 73.4657 45.7045 74.5219 48.1719 74.7566V78.7467C45.4695 78.512 43.2372 77.4558 41.9448 75.8128C41.5923 75.3434 40.8873 75.226 40.4174 75.5781C39.9474 75.9302 39.8299 76.6343 40.1824 77.1037C41.8273 79.2161 44.8821 80.6244 48.1719 80.8591V85.3187C44.2946 85.084 40.8873 83.5584 39.0074 81.2112C38.655 80.7418 37.95 80.6244 37.48 80.9765C37.0101 81.3286 36.8926 82.0327 37.2451 82.5021C39.4774 85.4361 43.5896 87.3138 48.1719 87.5485V92.0081C43.2372 91.7733 38.7725 89.7783 36.4226 86.727C36.0701 86.2576 35.3652 86.1402 34.8952 86.4923C34.4252 86.8443 34.3078 87.5485 34.6602 88.0179C37.48 91.5386 42.6497 93.8858 48.1719 94.1205V98.5801C42.5322 98.3453 37.48 96.1156 34.7777 92.5948C34.4252 92.1254 33.7203 92.0081 33.2503 92.3601C32.7804 92.7122 32.6629 93.4163 33.0153 93.8858C36.1876 97.8759 41.8273 100.458 48.1719 100.692V114.893C48.1719 115.479 48.6418 115.949 49.2293 115.949C49.8167 115.949 50.2867 115.479 50.2867 114.893V101.045C56.5138 100.81 62.2709 98.228 65.4432 94.2378C65.9132 93.7684 65.7957 93.0643 65.3257 92.7122Z" fill="#191919"/>
<path d="M207.374 25.4666L207.021 31.5692L206.904 34.1511L202.909 105.739L202.792 107.969L202.557 112.076L202.439 114.658L202.204 119.118L189.515 119L152.74 118.648C152.388 118.648 152.035 118.648 151.683 118.648H151.448L144.281 118.531C143.811 118.531 143.458 118.531 142.988 118.531C123.719 118.179 101.396 117.709 79.8948 117.24C53.459 116.653 28.4331 116.066 17.5063 116.066C15.1565 116.066 12.4542 115.832 11.0443 114.306C10.1043 113.367 9.75185 112.076 9.86934 110.433C10.1043 106.678 10.4568 102.218 10.9268 97.2891C11.1618 94.1205 11.5142 90.7171 11.7492 87.0791C12.5717 87.4311 13.3941 87.6658 14.2166 87.7832C13.9816 91.1866 13.6291 94.4725 13.3941 97.4065C12.9241 102.335 12.5717 106.795 12.3367 110.55C12.3367 111.489 12.4542 112.076 12.8066 112.428C13.6291 113.367 15.8614 113.484 17.3888 113.367C17.9763 113.367 18.6813 113.367 19.5037 113.367C20.2087 113.367 20.9136 113.367 21.7361 113.367C28.1981 113.367 37.3625 113.602 48.1718 113.836C48.8768 113.836 49.6992 113.836 50.4042 113.836C59.3336 114.071 69.3205 114.306 79.8948 114.541C101.513 115.01 123.719 115.597 142.988 115.832C143.341 115.832 143.811 115.832 144.163 115.832L151.095 115.949H151.213L164.607 115.714L189.398 116.066L199.737 116.184L199.854 114.306L199.972 112.663V111.724L204.319 33.799L204.437 31.2171L204.672 26.4055L189.398 27.1096L117.375 30.513V32.156C116.552 32.156 115.73 32.156 114.79 32.156V28.0485L189.398 24.7625L205.964 24.0583C206.786 24.0583 207.374 24.6451 207.374 25.4666Z" fill="#191919"/>
<path d="M16.9189 40.4883C17.0364 38.0238 17.0364 35.4419 17.0364 32.9774C17.0364 29.4567 19.8562 26.6401 23.381 26.5228C47.5844 25.7013 68.498 24.293 88.7067 23.0021C111.265 21.5938 134.529 20.0681 162.609 19.2466C163.314 19.2466 163.902 18.6599 163.902 17.9557C163.902 17.2516 163.197 16.6648 162.609 16.6648C134.646 17.4863 111.265 19.0119 88.7067 20.4202C68.498 21.7111 47.5844 23.1194 23.381 23.9409C18.4463 24.1756 14.569 28.0484 14.569 32.9774C14.569 35.9113 14.4515 38.8453 14.334 41.6618C14.4515 41.6618 14.4515 41.6618 14.569 41.7792C15.274 41.1924 16.0964 40.723 16.9189 40.4883Z" fill="#191919"/>
</g>
<defs>
<clipPath id="clip0_25_41">
<rect width="268" height="119" fill="white"/>
</clipPath>
</defs>
</svg>
