<svg width="404" height="102" viewBox="0 0 404 102" fill="none" xmlns="http://www.w3.org/2000/svg">
<g clip-path="url(#clip0_25_4)">
<path d="M106.633 1.79113C106.539 1.13124 106.256 0.565624 105.691 0.282815C105.219 4.96209e-06 104.559 -0.0942649 103.993 0.0942748L97.9594 1.22551C97.3937 1.22551 96.9223 1.69686 96.828 2.26248C96.828 2.73383 96.6394 12.6322 96.5452 17.0629C96.5452 17.6285 97.0166 18.1941 97.5823 18.1941C98.148 18.1941 98.6194 17.7227 98.7137 17.1571C98.8079 13.3863 98.9965 5.93901 98.9965 3.29945L104.465 2.35675C104.748 5.27912 105.219 11.9723 104.842 16.6858C104.748 17.2514 105.219 17.817 105.879 17.9113H105.973C106.539 17.9113 107.011 17.4399 107.105 16.8743C107.388 11.7837 106.822 4.61923 106.633 1.79113Z" fill="white"/>
<path d="M29.039 67.0259C28.1904 67.4972 27.3419 67.8743 26.4933 68.0629C27.2476 67.3087 27.719 66.366 27.9076 65.329C28.0019 64.7634 27.6247 64.2921 27.1533 64.1978C26.6819 64.1035 26.1162 64.4806 26.0219 64.952C25.8334 65.9889 25.0791 66.8374 24.2306 67.3087C24.1363 67.3087 24.1363 67.403 24.042 67.403C23.4763 67.2144 22.9106 67.2144 22.2506 67.4972C21.6849 67.78 21.4021 68.1571 21.1192 68.4399L20.9307 68.6285C20.2707 69.3826 19.3279 69.854 18.2908 70.2311V65.5176C18.385 65.5176 18.4793 65.6118 18.6679 65.6118C18.9507 65.6118 19.3279 65.4233 19.5164 65.1405C20.2707 64.0093 21.1192 62.6895 22.2506 62.0296C22.5335 61.841 22.9106 61.7468 23.382 61.5582C23.382 61.6525 23.382 61.6525 23.4763 61.7468C23.6649 62.0296 23.9477 62.2181 24.3248 62.2181C24.5134 62.2181 24.6077 62.2181 24.7962 62.1239L26.1162 61.3697C26.2105 61.3697 26.2105 61.3697 26.3048 61.3697C27.059 61.3697 27.8133 61.464 28.5675 61.2754C29.8875 60.9926 30.9246 60.0499 31.1132 58.8244C31.2075 58.2588 30.8303 57.7874 30.3589 57.6932C29.7932 57.5989 29.3218 57.976 29.2275 58.4473C29.1332 58.9187 28.5675 59.2015 28.0961 59.2958C28.0019 59.2958 27.9076 59.2958 27.9076 59.2958C28.0019 58.8244 27.9076 58.2588 27.5304 57.5989L27.3419 57.5046C27.1533 57.2218 27.059 57.0333 27.059 56.8447C27.059 56.2791 26.5876 55.902 26.1162 55.902C25.5505 55.902 25.1734 56.3734 25.1734 56.8447C25.1734 57.5046 25.4562 58.0703 25.7391 58.4473L25.8334 58.6359C26.0219 58.9187 26.0219 59.013 26.0219 59.1072C26.0219 59.1072 25.8334 59.2015 25.7391 59.2958L25.4562 59.39C23.7591 59.39 22.3449 59.6728 21.2135 60.3327C19.8936 61.0869 19.045 62.2181 18.2908 63.3494C18.2908 63.3494 18.2908 63.3494 18.1965 63.3494L18.1022 56.2791C18.1022 56.2791 18.1022 56.2791 18.1965 56.2791C19.2336 56.0906 20.2707 55.902 21.3078 55.7135C21.4021 55.8078 21.4964 55.8078 21.6849 55.8078C21.7792 55.8078 21.7792 55.8078 21.8735 55.8078C22.1563 55.8078 22.5335 55.6192 22.6278 55.3364C23.0992 55.2422 23.5706 55.1479 24.042 55.0536C24.1363 55.0536 24.1363 55.0536 24.2306 55.0536C24.4191 55.0536 24.6077 54.9593 24.7962 54.8651C25.7391 54.5823 26.6819 54.3937 27.6247 54.1109C28.0961 53.9224 28.379 53.451 28.2847 52.8854C28.0961 52.4141 27.6247 52.1313 27.059 52.2255C26.7762 52.3198 26.3991 52.4141 26.1162 52.5083L26.4933 51.7542C26.7762 51.2828 26.5876 50.7172 26.1162 50.4344C25.6448 50.1516 25.0791 50.3401 24.7962 50.8115L23.5706 53.2625C23.2877 53.3568 23.0992 53.3568 22.8163 53.451C22.722 52.8854 22.6278 52.3198 22.4392 51.7542C22.2506 51.2828 21.6849 51 21.2135 51.2828C20.7421 51.4714 20.4593 52.037 20.7421 52.5083C20.9307 52.9797 21.025 53.451 21.025 53.9224C20.0821 54.1109 19.1393 54.2995 18.1965 54.3937V49.7745C18.1965 49.7745 18.1965 49.7745 18.2908 49.7745C18.4793 49.7745 18.6679 49.7745 18.7622 49.6802C19.6107 49.2089 20.6478 49.1146 21.7792 49.0203C23.1934 48.9261 24.5134 48.7375 25.8334 47.8891C26.3048 47.6063 26.3991 47.0407 26.1162 46.5693C25.8334 46.098 25.2677 46.0037 24.7962 46.2865C24.4191 46.4751 24.042 46.6636 23.6649 46.7579C23.8534 46.1922 23.8534 45.6266 23.6649 45.061C23.4763 44.5897 23.0049 44.3068 22.4392 44.4011C21.9678 44.5897 21.6849 45.061 21.7792 45.6266C21.8735 46.0037 21.7792 46.4751 21.4021 46.7579C21.3078 46.8521 21.2135 46.9464 21.1192 47.0407C20.0821 47.1349 19.1393 47.3235 18.1965 47.7006V43.9298C18.385 43.9298 18.5736 43.8355 18.6679 43.7412C19.6107 42.9871 20.2707 42.0444 20.8364 41.0074C21.1192 40.5361 20.9307 39.9704 20.4593 39.6876C19.9879 39.4048 19.4222 39.5934 19.1393 40.0647C18.8565 40.6303 18.4793 41.1017 18.1022 41.573V40.7246C18.1022 40.159 17.6308 39.7819 17.1594 39.7819C16.5937 39.7819 16.2166 40.2532 16.2166 40.7246V44.3069C15.5566 43.9298 15.0852 43.4584 14.6138 42.8928C14.3309 42.5157 13.6709 42.4215 13.2938 42.7043C12.9167 42.9871 12.8224 43.647 13.1052 44.024C13.9538 45.061 14.9909 45.9094 16.2166 46.4751V50.1516C16.1223 50.1516 16.1223 50.1516 16.028 50.0573H15.8394C15.8394 49.963 15.8394 49.963 15.8394 49.8688L15.4623 48.3605C15.368 47.8891 14.8023 47.512 14.3309 47.7006C13.8595 47.7948 13.4824 48.3605 13.6709 48.8318L13.9538 49.8688L13.2938 49.963C12.9167 49.2089 12.7281 48.3605 12.6338 47.512C12.6338 46.9464 12.1624 46.5693 11.5967 46.6636C11.031 46.6636 10.6539 47.1349 10.7482 47.7006C10.8425 48.4547 10.9367 49.1146 11.2196 49.8688L7.82542 49.4917C7.25973 49.3974 6.78831 49.8688 6.78831 50.3401C6.69403 50.9057 7.16544 51.3771 7.63686 51.3771L12.4453 51.8484C12.5395 51.8484 12.6338 51.8484 12.7281 51.8484L15.8394 52.1312H15.9337C16.028 52.1312 16.1223 52.1313 16.2166 52.037L16.3108 62.878C16.2166 62.7837 16.028 62.7837 15.9337 62.6895C15.4623 62.5009 14.708 62.0296 14.4252 61.2754C14.4252 61.1812 14.3309 60.9926 14.3309 60.8983C14.2366 60.6155 14.1423 60.2385 13.8595 59.8614C14.1423 58.6359 14.0481 57.2218 13.3881 56.0906C13.1052 55.6192 12.5395 55.4307 12.0681 55.7135C11.5967 55.9963 11.4082 56.5619 11.691 57.0333C11.9738 57.5989 12.0681 58.2588 12.0681 58.9187C11.5967 58.9187 11.1253 58.9187 10.6539 59.0129C10.0882 59.1072 9.5225 59.1072 9.23966 58.9187C9.14537 58.8244 9.05109 58.7301 8.95681 58.6359C8.76824 58.4473 8.57968 58.2588 8.29683 58.0702C8.39112 57.8817 8.39112 57.7874 8.4854 57.5989C8.67396 56.939 8.57968 56.0906 8.20255 55.3364C7.9197 54.7708 7.44829 54.2995 7.07116 53.9224C6.69403 53.5453 6.12834 53.5453 5.75121 53.9224C5.37408 54.2995 5.37408 54.8651 5.75121 55.2422C6.03406 55.6192 6.41118 55.902 6.59975 56.2791C6.69403 56.5619 6.69403 56.8447 6.59975 57.0333C6.59975 57.1276 6.50547 57.2218 6.50547 57.3161C6.41119 57.4104 6.41118 57.5046 6.3169 57.6932L0.942807 57.2218C0.377113 57.1276 -1.69352e-05 57.5989 -0.0942993 58.0702C-0.0942993 58.6359 0.28283 59.013 0.754242 59.1072L6.59975 59.5786C6.78831 59.7671 6.97688 59.8614 7.25973 59.8614C7.35401 59.8614 7.35401 59.8614 7.44829 59.8614C7.54257 59.8614 7.54257 59.9557 7.63686 60.0499C7.82542 60.2385 8.01399 60.427 8.29683 60.6155C9.14537 61.1812 10.0882 60.9926 10.9367 60.9926C11.5967 60.8983 12.0681 60.8983 12.2567 61.0869C12.351 61.1812 12.4453 61.464 12.5395 61.6525C12.6338 61.841 12.6338 62.0296 12.7281 62.1239C13.1052 63.1608 14.0481 64.0093 15.2737 64.5749C15.6509 64.7634 16.028 64.8577 16.4994 64.952V69.6654C15.0852 68.7227 13.4824 68.0629 12.1624 67.6858C12.5395 66.2717 12.1624 64.6691 11.031 63.7264C10.6539 63.3494 9.99392 63.3494 9.71107 63.8207C9.33394 64.1978 9.33394 64.8577 9.80535 65.1405C10.371 65.6118 10.5596 66.4603 10.371 67.1202C9.99392 67.0259 9.71107 66.9316 9.42822 66.9316C8.86253 66.8373 8.29683 66.7431 7.63686 66.6488C7.35401 66.2717 7.16544 65.8004 7.07116 65.1405C7.07116 64.952 6.97688 64.7634 6.97688 64.4806C6.8826 63.8207 6.69403 63.0666 6.41119 62.3124C5.93977 61.3697 4.99695 60.2385 3.58271 60.2385C3.01702 60.2385 2.63989 60.6155 2.54561 61.1812C2.54561 61.7468 2.92274 62.1239 3.48843 62.2181C3.95984 62.2181 4.43125 62.6895 4.61982 63.2551C4.80838 63.7264 4.90267 64.2921 5.09123 64.952C5.09123 65.1405 5.18551 65.4233 5.18551 65.6118C5.2798 65.8004 5.2798 66.0832 5.37408 66.366C3.86556 65.9889 2.82845 65.5176 2.16848 64.7634C1.79135 64.3863 1.22565 64.3863 0.848525 64.7634C0.471395 65.1405 0.471395 65.7061 0.848525 66.0832C1.79135 67.0259 3.20558 67.6858 4.99695 68.1571C5.56264 68.2514 6.22262 68.3457 6.78831 68.4399C6.97688 68.5342 7.16544 68.6285 7.25973 68.6285C7.35401 68.6285 7.44829 68.6285 7.54257 68.5342C8.01399 68.6285 8.4854 68.6285 8.95681 68.7227C11.3139 69.1941 14.4252 70.3253 16.4051 72.0222L16.688 97.1922C16.688 97.7579 17.1594 98.1349 17.6308 98.1349C18.1965 98.1349 18.5736 97.6636 18.5736 97.1922L18.4793 83.7117C18.6679 83.7117 18.8565 83.6174 19.045 83.5231L21.2135 82.0148C21.6849 81.732 21.7792 81.0721 21.4964 80.695C21.2135 80.2237 20.6478 80.1294 20.1764 80.4122L18.5736 81.5434L18.4793 72.2107C19.3279 71.9279 20.1764 71.5508 21.025 71.0795C21.1192 71.1738 21.1192 71.268 21.2135 71.268C21.7792 71.8337 22.3449 72.3993 22.8163 73.0592C23.0049 73.342 23.2877 73.5305 23.6649 73.5305C23.8534 73.5305 24.042 73.5305 24.1363 73.342C24.6077 73.0592 24.702 72.4935 24.4191 72.0222C23.9477 71.1738 23.2877 70.4196 22.5335 69.7597C22.5335 69.7597 22.5335 69.7597 22.6278 69.6654L22.8163 69.4769C23.0049 69.2884 23.0992 69.0998 23.2877 69.0056C23.4763 68.9113 23.9477 69.0998 24.3248 69.2884C24.6077 69.3826 24.8905 69.4769 25.1734 69.5712C26.9647 70.0425 28.6618 69.2884 30.1703 68.4399C30.6418 68.1571 30.8303 67.5915 30.5475 67.1202C30.0761 66.9316 29.5104 66.7431 29.039 67.0259Z" fill="white"/>
<path d="M140.669 89.7449L138.878 49.4917C138.972 48.1719 137.841 45.8152 136.521 44.4954C135.861 43.8355 135.201 43.4584 134.73 43.4584L102.956 44.1183C100.976 44.1183 99.3737 45.7209 99.3737 47.6063L100.128 93.61C100.128 94.3641 100.222 94.8355 100.505 95.024C100.882 95.4011 101.636 95.3068 102.579 95.2126C102.862 95.2126 103.145 95.1183 103.522 95.1183L112.667 95.5896V90.9704C112.385 90.4991 112.102 90.0277 111.725 89.5564L110.405 90.2163C110.31 90.3105 110.122 90.3105 110.028 90.3105C109.745 90.3105 109.462 90.122 109.368 89.9335C109.273 89.7449 109.179 89.5564 109.273 89.2736C109.368 89.085 109.462 88.8965 109.65 88.8965L110.593 88.3309C110.405 88.1423 110.122 87.9538 109.933 87.7652L108.613 88.5194C108.519 88.6137 108.33 88.6137 108.236 88.6137C107.953 88.6137 107.671 88.4251 107.576 88.2366C107.482 88.0481 107.388 87.8595 107.482 87.5767C107.576 87.3882 107.671 87.1996 107.859 87.1996L108.708 86.7283C108.519 86.634 108.425 86.5397 108.236 86.3512L106.728 87.1996H106.633C106.539 87.1996 106.539 87.2939 106.351 87.2939C106.068 87.2939 105.785 87.1054 105.691 86.9168C105.596 86.7283 105.596 86.5397 105.596 86.3512C105.596 86.1627 105.785 85.9741 105.973 85.7856L106.633 85.4085C105.973 85.0314 105.502 84.8429 105.408 84.8429H105.313V84.7486C104.936 84.4658 104.842 84.0887 105.031 83.8059C105.125 83.4288 105.596 83.2403 105.879 83.3346H105.973C105.973 83.3346 106.068 83.3346 106.162 83.4288H106.256C106.445 83.5231 106.633 83.6174 107.011 83.8059L106.822 83.2403C106.728 82.8632 106.916 82.4861 107.293 82.2976H107.388C107.576 82.2033 107.765 82.2976 107.953 82.3919C108.142 82.4861 108.236 82.6747 108.33 82.8632L108.802 84.183V84.0887C108.896 83.9002 109.085 83.8059 109.273 83.7116C109.462 83.6174 109.65 83.6174 109.839 83.7116C109.933 83.8059 110.122 83.9002 110.216 84.183L110.782 85.597C110.876 85.5028 110.97 85.4085 111.159 85.4085C111.536 85.3142 111.913 85.5028 112.102 85.8798L112.95 88.2366V81.4492C112.667 80.9778 112.385 80.5065 112.007 80.0351L110.593 80.7893H110.31C110.028 80.7893 109.745 80.6007 109.65 80.4122C109.556 80.3179 109.556 80.1294 109.556 79.9409C109.556 79.7523 109.745 79.5638 109.933 79.4695L110.97 78.9039C110.782 78.7153 110.499 78.5268 110.31 78.3383L108.896 79.0924C108.802 79.1867 108.613 79.1867 108.519 79.1867C108.236 79.1867 107.953 78.9981 107.859 78.8096C107.765 78.6211 107.671 78.4325 107.765 78.1497C107.859 77.9612 107.953 77.7726 108.142 77.7726L108.99 77.3013C108.802 77.207 108.613 77.0185 108.425 76.9242L107.011 77.7726C106.916 77.8669 106.728 77.8669 106.633 77.8669C106.351 77.8669 106.068 77.6784 105.973 77.4898C105.879 77.3013 105.785 77.1128 105.879 76.8299C105.973 76.6414 106.068 76.4529 106.256 76.4529L106.916 76.0758C106.162 75.6987 105.691 75.5102 105.596 75.4159C105.408 75.3216 105.219 75.1331 105.125 74.9445C105.031 74.756 105.125 74.5675 105.219 74.3789C105.313 74.1904 105.408 74.0018 105.596 74.0018C105.785 73.9076 105.973 74.0018 106.068 74.0961C106.162 74.0961 106.539 74.2847 107.011 74.5675L106.822 74.0018C106.728 73.6248 106.916 73.2477 107.293 73.0591C107.482 72.9649 107.671 72.9649 107.859 73.0591C108.048 73.1534 108.142 73.2477 108.236 73.4362L108.708 74.756C108.802 74.5675 108.99 74.3789 109.179 74.2847C109.556 74.1904 109.933 74.3789 110.122 74.756L110.688 76.1701C110.782 76.0758 110.876 75.9815 110.97 75.9815C111.348 75.8872 111.725 76.0758 111.913 76.4529L112.762 78.7153C113.045 78.9981 113.327 79.3752 113.516 79.7523C113.987 78.4325 114.365 76.5471 114.553 74.2847C114.553 74.2847 114.553 74.1904 114.553 74.0961C114.647 73.342 114.647 72.5878 114.647 71.7394L112.762 70.2311H110.216C109.839 70.2311 109.462 69.9482 109.462 69.4769C109.462 69.0998 109.839 68.7227 110.216 68.7227H110.876L109.273 67.403C109.085 67.2144 108.99 67.0259 108.99 66.7431C108.99 66.5545 109.085 66.4603 109.179 66.2717C109.462 65.9889 109.839 65.8946 110.216 66.1774L112.102 67.6858L111.913 66.0832C111.913 65.8004 112.007 65.6118 112.102 65.5176C112.196 65.4233 112.385 65.329 112.573 65.329C112.762 65.2348 113.045 65.329 113.139 65.4233C113.327 65.5176 113.422 65.7061 113.422 65.9889L113.799 69.0055L114.742 69.7597C114.742 67.2144 114.647 64.8577 114.553 63.2551L112.573 60.427C112.29 60.0499 112.385 59.5786 112.762 59.2957C112.95 59.2015 113.233 59.1072 113.422 59.2015C113.61 59.2957 113.705 59.39 113.799 59.5786L114.553 60.6155C114.647 60.427 114.836 60.3327 115.119 60.3327C115.307 60.3327 115.496 60.3327 115.59 60.427C115.685 60.5213 115.779 60.6155 115.873 60.8041L116.816 59.5786C116.91 59.39 117.099 59.2957 117.287 59.2015C117.476 59.1072 117.759 59.2015 117.853 59.2957C118.136 59.5786 118.23 60.0499 118.042 60.427L116.062 63.1608C116.156 64.0092 116.156 65.329 116.25 66.8373L117.193 66.0832L117.57 62.878C117.664 62.5009 118.042 62.2181 118.419 62.2181H118.513C118.89 62.3124 119.267 62.6895 119.079 63.1608L118.89 64.6691L120.681 63.1608C120.87 63.0665 121.059 62.9723 121.247 62.9723C121.436 62.9723 121.624 63.0665 121.813 63.2551C122.001 63.5379 122.001 63.915 121.719 64.1978L120.021 65.6118H120.776C121.247 65.6118 121.53 65.8946 121.53 66.366C121.53 66.7431 121.247 67.1201 120.776 67.1201H118.136L116.344 68.5342C116.344 69.3826 116.344 70.2311 116.344 71.0795C116.344 71.1738 116.344 71.3623 116.344 71.4566C116.344 71.9279 116.344 72.3993 116.25 72.9649L117.099 72.5878L117.476 69.7597C117.476 69.5712 117.57 69.3826 117.759 69.1941C117.947 69.0998 118.136 69.0055 118.23 69.0998C118.419 69.0998 118.607 69.1941 118.796 69.3826C118.89 69.5712 118.984 69.7597 118.89 69.9482L118.702 71.8336L119.267 71.5508L119.55 68.7227C119.644 68.3457 120.021 68.0628 120.399 68.0628C120.587 68.0628 120.776 68.1571 120.964 68.3457C121.059 68.5342 121.153 68.7227 121.059 69.0055L120.87 70.8909L122.661 70.1368C122.756 70.0425 123.039 70.0425 123.227 70.0425C123.416 70.1368 123.604 70.3253 123.699 70.5139C123.793 70.8909 123.699 71.268 123.321 71.4566L121.53 72.2107L122.567 73.0591C122.756 73.1534 122.85 73.342 122.944 73.5305C122.944 73.719 122.944 73.9076 122.85 74.0961V74.1904H122.756H122.661C122.567 74.2847 122.473 74.2847 122.284 74.2847C122.19 74.2847 121.907 74.2847 121.813 74.0961L120.021 72.7763L119.456 72.9649L120.587 73.8133C120.87 74.0961 120.964 74.5675 120.681 74.8503C120.587 75.0388 120.304 75.2274 120.021 75.2274C119.927 75.2274 119.833 75.2274 119.739 75.1331H119.644L119.55 75.0388L117.664 73.6248L116.062 74.2847C115.779 77.3956 115.213 79.658 114.365 81.1664V84.8429C114.365 84.8429 114.365 84.8429 114.459 84.7486L115.307 82.3919C115.402 82.0148 115.873 81.8262 116.25 81.9205H116.344C116.439 82.0148 116.533 82.1091 116.627 82.2033L117.193 80.695C117.287 80.3179 117.759 80.1294 118.136 80.2237C118.324 80.2237 118.513 80.4122 118.607 80.6007V80.695L119.079 79.4695C119.173 79.281 119.267 79.1867 119.456 79.0924C119.644 78.9981 119.833 78.9982 120.021 78.9982C120.21 79.0924 120.399 79.1867 120.493 79.3752C120.587 79.5638 120.587 79.7523 120.587 79.9409L120.399 80.4122C120.964 80.1294 121.341 80.0351 121.341 79.9409C121.719 79.8466 122.096 79.9408 122.284 80.3179C122.379 80.5065 122.379 80.695 122.379 80.8835C122.284 81.0721 122.096 81.2606 121.907 81.3549H121.813C121.813 81.3549 121.813 81.3549 121.719 81.3549C121.53 81.4492 121.153 81.6377 120.493 81.9205L121.247 82.2976C121.436 82.2976 121.53 82.4861 121.624 82.6747C121.719 82.8632 121.624 83.146 121.53 83.3346C121.436 83.5231 121.153 83.7116 120.87 83.7116C120.776 83.7116 120.587 83.7116 120.493 83.6174L119.079 82.8632C118.89 82.9575 118.796 83.0518 118.607 83.2403L119.456 83.7116C119.833 83.9002 119.927 84.2773 119.833 84.6543L119.739 84.7486C119.55 84.9372 119.267 85.1257 119.079 85.1257H118.796L117.287 84.2773C117.099 84.4658 116.816 84.6543 116.627 84.8429L117.664 85.4085C117.853 85.597 118.042 85.7856 118.042 85.9741C118.042 86.1627 118.042 86.3512 117.947 86.4455C117.853 86.634 117.57 86.9168 117.287 86.9168C117.193 86.9168 117.099 86.9168 117.004 86.8225H116.91H116.816L115.496 86.0684C115.119 86.5397 114.836 87.0111 114.553 87.4824V95.3068L128.79 96.061V90.7819C126.716 93.0444 123.51 93.3272 122.19 93.3272C121.813 93.3272 121.624 93.3272 121.624 93.3272C121.247 93.3272 120.964 92.9501 120.964 92.4787C120.964 92.1017 121.341 91.8189 121.719 91.8189C121.719 91.8189 121.719 91.8189 121.813 91.8189C122.001 91.8189 123.321 91.9131 124.83 91.536C126.81 90.9704 128.224 89.8392 128.884 88.0481V84.6543C126.904 86.634 123.981 86.8225 123.133 86.8225C122.944 86.8225 122.85 86.8225 122.85 86.8225C122.473 86.8225 122.19 86.4455 122.19 86.0684C122.19 85.8799 122.284 85.6913 122.473 85.597C122.661 85.5028 122.85 85.4085 123.039 85.4085C123.227 85.4085 127.564 85.6913 128.978 82.1091V78.7153C127.093 80.4122 124.453 80.4122 124.358 80.4122C124.17 80.4122 123.981 80.3179 123.793 80.2237C123.699 80.1294 123.604 79.9408 123.604 79.658C123.604 79.281 123.981 78.9039 124.358 78.9039C124.547 78.9039 127.847 78.9039 128.978 76.1701V73.719C127.658 74.756 126.056 74.9445 125.961 74.9445C125.773 74.9445 125.584 74.9445 125.396 74.756C125.207 74.6617 125.113 74.4732 125.113 74.2847C125.113 73.9076 125.396 73.5305 125.773 73.4362C125.773 73.4362 128.318 73.1534 128.978 71.1737C128.978 71.0795 129.073 71.0795 129.073 71.0795C129.073 71.0795 129.073 70.9852 129.167 70.9852C129.261 70.8909 129.261 70.8909 129.261 70.8909L129.355 70.7967H129.45H129.544C129.638 70.7967 129.638 70.7967 129.638 70.7967H129.733C129.733 70.7967 129.733 70.7967 129.827 70.7967C129.827 70.7967 129.921 70.7967 129.921 70.8909C129.921 70.8909 130.015 70.8909 130.015 70.9852L130.11 71.0795C130.11 71.1738 130.204 71.1737 130.204 71.1737C130.958 73.1534 133.41 73.4362 133.41 73.4362C133.787 73.4362 134.07 73.8133 134.07 74.2847C134.07 74.4732 133.975 74.6617 133.787 74.756C133.598 74.8503 133.41 74.9445 133.221 74.9445C133.127 74.9445 131.524 74.756 130.204 73.719V76.1701C131.241 78.8096 134.73 78.9039 134.824 78.9039C135.201 78.9039 135.578 79.1867 135.578 79.658C135.578 79.8466 135.484 80.0351 135.39 80.2237C135.295 80.4122 135.107 80.4122 134.824 80.4122C134.73 80.4122 132.09 80.4122 130.204 78.7153V82.2033C131.618 85.6913 136.144 85.5028 136.144 85.5028C136.332 85.5028 136.521 85.597 136.709 85.6913C136.898 85.7856 136.898 85.9741 136.992 86.1627C136.992 86.3512 136.898 86.5397 136.804 86.7283C136.709 86.9168 136.521 86.9168 136.332 87.0111C136.332 87.0111 136.238 87.0111 136.05 87.0111C135.201 87.0111 132.278 86.8225 130.298 84.8429V88.2366C130.958 89.9335 132.372 91.159 134.352 91.7246C135.861 92.1017 137.275 92.0074 137.369 92.0074C137.558 92.0074 137.747 92.0074 137.935 92.1959C138.124 92.2902 138.218 92.4787 138.218 92.6673C138.218 93.0444 137.935 93.4214 137.558 93.5157C137.558 93.5157 137.275 93.5157 136.992 93.5157C135.672 93.5157 132.467 93.2329 130.393 90.9704V96.3438L138.407 96.7209C139.538 96.8152 140.669 91.4418 140.669 89.7449Z" fill="white"/>
<path d="M152.832 96.2495H155.094L155.754 28.8466H153.586L152.832 96.2495Z" fill="white"/>
<path d="M160.011 28.8004L159.607 97.6174L161.776 97.6301L162.179 28.8131L160.011 28.8004Z" fill="white"/>
<path d="M166.563 28.847L166.159 97.664L168.327 97.6767L168.731 28.8597L166.563 28.847Z" fill="white"/>
<path d="M146.132 28.834L145.091 97.6441L147.259 97.6769L148.301 28.8668L146.132 28.834Z" fill="white"/>
<path d="M141.801 92.4787C141.706 93.7985 141.424 95.024 140.858 96.061C140.669 96.4381 140.386 96.9094 140.198 97.2865C140.009 97.5693 139.632 97.7579 139.255 97.7579C139.067 97.7579 138.784 97.6636 138.595 97.5693C138.407 97.3808 138.218 97.1922 138.124 96.9094C138.029 96.6266 138.124 96.3438 138.312 96.061C138.312 96.061 138.312 96.061 138.312 95.9667C139.067 94.9298 139.444 93.7043 139.538 92.2902C139.915 87.0111 139.915 79.658 139.726 72.2107V72.1165C139.632 69.6654 139.538 67.1201 139.349 64.6691C139.349 64.5749 139.349 64.5749 139.349 64.4806C138.972 58.1645 138.407 52.3198 137.558 47.8891C137.087 45.2495 134.73 43.3641 132.09 43.4584C130.11 43.5527 128.224 43.647 126.338 43.647C126.15 43.8355 125.867 43.9298 125.584 43.9298C125.301 43.9298 125.113 43.8355 124.924 43.7412C116.91 44.1183 109.745 44.5896 102.674 45.061L100.505 45.2495L100.882 95.024V95.2126C100.882 95.7782 100.411 96.2495 99.7508 96.2495C99.1851 96.2495 98.6194 95.7782 98.6194 95.1183V94.8355L98.2422 45.2495C93.9995 45.2495 90.0397 45.2495 86.1741 45.3438C75.8973 45.4381 66.092 45.5324 52.6096 44.2126C52.2324 44.2126 51.761 44.1183 51.3839 44.1183C51.0068 44.1183 50.6296 43.8355 50.4411 43.4584C50.3468 43.2699 50.3468 43.0813 50.3468 42.8928C50.3468 42.7985 50.4411 42.61 50.4411 42.5157C50.6296 42.1386 51.1011 41.8558 51.5725 41.9501C51.9496 41.9501 52.3267 42.0444 52.7039 42.0444C54.4952 42.2329 56.1923 42.4214 57.8894 42.5157L58.4551 30.2606V29.8835C58.4551 29.3179 58.9265 28.8466 59.5865 28.8466C60.1522 28.8466 60.6236 29.4122 60.6236 29.9778V30.2606L60.2465 42.7985C61.755 42.8928 63.1692 42.9871 64.5834 43.0813L65.0549 30.1664V29.8835C65.0549 29.3179 65.6205 28.7523 66.1862 28.8466C66.7519 28.8466 67.2234 29.4122 67.2234 29.9778V30.1664L66.8462 43.1756C68.3547 43.2699 69.769 43.2699 71.1832 43.2699L71.5603 30.0721V29.8835C71.5603 29.3179 72.126 28.7523 72.6917 28.8466C73.2574 28.8466 73.7288 29.4122 73.7288 29.9778V30.0721L73.3517 43.2699C74.8602 43.2699 76.2745 43.2699 77.6887 43.2699L78.0658 29.9778V29.695C78.0658 29.1294 78.5372 28.5638 79.1972 28.658C79.7629 28.658 80.2343 29.2237 80.2343 29.7893V29.9778L79.9515 43.3641C81.7428 43.3641 83.5342 43.3641 85.4198 43.3641L85.797 29.8835C85.797 29.3179 86.2684 28.8466 86.9284 28.8466C87.4941 28.8466 87.9655 29.3179 87.9655 29.8835V29.9778L87.5883 43.2699C89.0026 43.2699 90.5111 43.2699 91.9253 43.2699L92.3025 29.9778V29.8835C92.3967 29.3179 92.8682 28.8466 93.4338 28.8466C93.9995 28.8466 94.471 29.3179 94.471 29.7893C94.471 29.8835 94.471 29.8835 94.471 29.9778L94.0938 43.2699C95.5081 43.2699 97.0166 43.2699 98.4308 43.2699L98.8079 29.7893V29.6007C98.9965 29.695 99.1851 29.7893 99.3736 29.7893C99.9393 29.7893 100.505 29.3179 100.411 28.658V27.9039C100.694 28.0924 100.976 28.4695 100.976 28.8466V29.695L100.599 43.1756L102.579 43.0813C103.334 42.9871 104.182 42.9871 104.936 42.8928L105.313 29.695V28.8466C105.313 28.281 105.879 27.8096 106.445 27.8096C107.011 27.8096 107.482 28.281 107.482 28.9409V29.695L107.105 42.7985C108.519 42.7043 110.028 42.61 111.442 42.5157L111.819 29.6007V28.8466C111.819 28.281 112.29 27.8096 112.95 27.8096C113.516 27.8096 113.987 28.3752 113.987 28.9409V29.6007L113.61 42.3272C115.025 42.2329 116.533 42.1386 117.947 42.0444L118.324 29.5065V28.8466C118.324 28.281 118.89 27.8096 119.456 27.8096C120.021 27.8096 120.493 28.281 120.493 28.9409V29.5065L120.116 41.9501C121.53 41.8558 123.039 41.7616 124.453 41.7616L124.83 29.4122V28.8466C124.83 28.281 125.396 27.8096 125.961 27.8096C126.527 27.8096 126.998 28.281 126.998 28.9409V29.4122L126.621 41.6673C128.035 41.573 129.45 41.573 130.958 41.4787L131.335 29.3179V28.7523C131.335 28.1867 131.901 27.6211 132.467 27.7153C133.032 27.7153 133.504 28.281 133.504 28.8466V29.3179L133.41 41.4787C135.767 41.7616 137.841 43.2699 138.972 45.2495L139.255 29.2237V28.7523H141.424V29.2237L141.141 57.8817C142.178 69.2884 142.461 83.7116 141.801 92.4787Z" fill="white"/>
<path d="M221.375 38.4621C221.941 38.2736 222.601 38.1793 223.355 38.1793C223.449 38.1793 223.544 38.1793 223.544 38.1793C223.449 32.2403 223.355 28.3752 223.355 28.1867V27.1497H222.318C222.035 27.1497 204.121 27.0555 177.345 26.9612H175.177C165.466 26.9612 155.377 26.9612 145.855 26.9612C138.689 26.9612 119.644 27.244 100.599 27.4325H98.4308C75.3316 27.7153 52.9867 28.0924 52.6096 28.0924H51.5725L51.4782 29.2237C51.4782 29.3179 51.101 34.6913 50.8182 42.61C50.8182 42.7985 50.8182 42.8928 50.8182 43.0813C50.8182 43.2699 50.8182 43.3641 50.8182 43.5527C50.6296 48.8318 50.4411 54.7708 50.2525 60.9926C50.2525 61.2754 50.3468 61.464 50.4411 61.6525L51.1953 62.878C51.5725 63.4436 52.421 63.2551 52.421 62.5009C52.5153 56.0906 52.7038 49.7745 52.8924 44.3068C52.8924 43.9298 52.8924 43.5527 52.8924 43.1756C52.8924 42.7985 52.8924 42.5157 52.8924 42.1386C53.1753 36.4824 53.3638 32.2403 53.5524 30.3549C54.5895 30.3549 56.1923 30.3549 58.4551 30.2606C59.115 30.2606 59.8693 30.2606 60.6236 30.2606C61.9435 30.2606 63.452 30.2606 64.9606 30.1664C65.6205 30.1664 66.3748 30.1664 67.129 30.1664C68.5433 30.1664 69.9575 30.1664 71.466 30.0721C72.2203 30.0721 72.8803 30.0721 73.6345 30.0721C75.0488 30.0721 76.463 30.0721 77.9715 29.9778C78.7258 29.9778 79.3858 29.9778 80.14 29.9778C81.9314 29.9778 83.7228 29.8835 85.6084 29.8835C86.3627 29.8835 87.0226 29.8835 87.7769 29.8835C89.1911 29.8835 90.6996 29.8835 92.1139 29.7893C92.8681 29.7893 93.5281 29.7893 94.2824 29.7893C95.6966 29.7893 97.2051 29.7893 98.6194 29.695C99.3736 29.695 100.034 29.695 100.788 29.695C102.202 29.695 103.711 29.695 105.125 29.6007C105.879 29.6007 106.633 29.6007 107.293 29.6007C108.802 29.6007 110.216 29.6007 111.63 29.5065C112.385 29.5065 113.139 29.5065 113.799 29.5065C115.307 29.5065 116.722 29.5065 118.136 29.4122C118.89 29.4122 119.644 29.4122 120.304 29.4122C121.813 29.4122 123.227 29.4122 124.641 29.3179C125.396 29.3179 126.15 29.3179 126.81 29.3179C128.318 29.3179 129.827 29.3179 131.147 29.2237C131.901 29.2237 132.655 29.2237 133.315 29.2237C135.295 29.2237 137.087 29.2237 138.784 29.1294C139.538 29.1294 140.292 29.1294 140.952 29.1294C142.649 29.1294 144.063 29.1294 145.289 29.1294H145.666C146.421 29.1294 147.081 29.1294 147.835 29.1294C149.532 29.1294 151.323 29.1294 153.115 29.1294H155.283C156.697 29.1294 158.112 29.1294 159.526 29.1294C160.28 29.1294 160.94 29.1294 161.694 29.1294C163.109 29.1294 164.617 29.1294 166.031 29.1294H168.2C170.274 29.1294 172.348 29.1294 174.422 29.1294H176.591C200.161 29.1294 215.718 29.2237 220.621 29.3179C221.186 30.9205 221.281 34.1257 221.375 38.4621Z" fill="white"/>
<path d="M222.035 88.708C221.658 88.708 221.375 88.708 220.998 88.6137C220.998 88.708 220.998 88.8965 220.998 88.9908C203.461 91.159 191.393 91.6303 173.762 90.4991H173.668L173.574 92.3845H173.668C179.891 92.7616 180.456 93.0444 186.679 93.0444C198.087 93.0444 209.59 92.3845 220.904 90.9704C220.809 92.573 220.715 93.9871 220.621 95.4011C207.044 95.4954 194.693 95.5897 183.851 95.7782C178.288 95.8725 178.665 95.8725 173.48 95.9667C173.102 95.9667 172.725 95.9667 172.348 95.9667C171.971 95.9667 171.688 95.9667 171.311 95.9667C170.368 95.9667 169.331 95.9667 168.388 95.9667C167.634 95.9667 166.88 95.9667 166.22 95.9667C164.711 95.9667 163.297 95.9667 161.883 95.9667C161.129 95.9667 160.374 95.9667 159.714 95.9667C158.206 95.9667 156.697 95.9667 155.189 95.9667C154.435 95.9667 153.68 95.9667 152.926 95.9667C151.04 95.9667 149.249 95.9667 147.363 95.9667H146.232C146.043 95.9667 145.666 95.9667 145.195 95.9667C144.158 95.9667 142.649 95.9667 140.952 95.9667C140.292 95.9667 139.726 95.9667 139.067 95.9667C138.878 95.9667 138.689 95.9667 138.501 95.9667C135.295 95.9667 132.278 95.8725 132.278 95.8725C131.524 95.8725 130.77 95.8725 130.015 95.8725C129.544 95.8725 129.073 95.8725 128.507 95.8725C123.793 95.7782 118.984 95.6839 114.27 95.4954C113.799 95.4954 113.233 95.4954 112.762 95.4954C110.405 95.4011 108.048 95.3068 105.596 95.2126C104.842 95.2126 104.182 95.1183 103.428 95.1183C102.674 95.1183 101.919 95.024 101.165 95.024C100.976 95.024 100.788 95.024 100.599 95.024C100.034 95.024 99.4679 94.9298 98.9965 94.9298C85.2313 94.2699 70.7118 93.4215 54.5895 92.1959C53.741 92.1017 53.1753 91.536 53.081 90.6876C52.9867 88.9908 52.7981 87.2939 52.7039 85.5028L50.6296 86.7283C50.7239 88.1423 50.8182 89.5564 50.9125 90.9704C51.101 92.8558 52.5153 94.3641 54.4009 94.4584C83.817 96.7209 107.859 97.8521 132.184 98.1349C132.184 98.1349 145.101 98.2292 146.232 98.2292C147.646 98.2292 162.731 98.2292 171.123 98.1349C171.5 98.1349 171.877 98.1349 172.254 98.1349C172.631 98.1349 172.914 98.1349 173.291 98.1349C178.477 98.0407 178.194 98.0407 183.851 97.9464C194.976 97.8521 207.61 97.6636 221.658 97.5693H222.695L222.789 96.5324C222.978 94.0813 223.166 91.3475 223.261 88.5194C222.789 88.708 222.412 88.708 222.035 88.708Z" fill="white"/>
<path d="M55.9095 79.4695C55.5323 79.1867 54.8724 79.1867 54.5895 79.658C52.2324 82.5804 47.8955 84.5601 43.1813 84.7486V80.8836C47.9897 80.695 52.3267 78.7153 54.7781 75.6044C55.0609 75.2274 55.0609 74.5675 54.5895 74.2847C54.2124 74.0019 53.5524 74.0019 53.2695 74.4732C51.1953 77.1128 47.424 78.8096 43.1813 78.9982V75.1331C47.0469 74.9445 50.5354 73.342 52.5153 70.7967C52.7981 70.4196 52.7981 69.7597 52.3267 69.4769C51.9496 69.1941 51.2896 69.1941 51.0068 69.6654C49.404 71.7394 46.4812 73.0591 43.1813 73.2477V69.4769C46.0098 69.2884 48.6497 68.0628 50.0639 66.1774C50.3468 65.8004 50.3468 65.1405 49.8754 64.8577C49.4983 64.5749 48.8383 64.5749 48.5554 65.0462C47.424 66.4603 45.4441 67.403 43.1813 67.5915V64.1035C45.2555 63.915 47.1412 62.9723 48.1783 61.6525C48.4611 61.2754 48.4611 60.6155 47.9897 60.3327C47.6126 60.0499 46.9526 60.0499 46.6698 60.5213C45.9155 61.464 44.5956 62.0296 43.1813 62.2181V58.3531C44.6898 58.1645 46.0098 57.5046 46.7641 56.4677C47.0469 56.0906 47.0469 55.4307 46.5755 55.1479C46.1984 54.8651 45.5384 54.8651 45.2555 55.3364C44.7841 55.902 44.0299 56.2791 43.1813 56.4677V51.8484C43.1813 51.2828 42.7099 50.9057 42.2385 50.9057C41.7671 50.9057 41.2957 51.2828 41.2957 51.8484V56.4677C40.4471 56.2791 39.5986 55.902 39.2215 55.3364C38.9386 54.9593 38.2786 54.8651 37.9015 55.1479C37.5244 55.4307 37.4301 56.0906 37.713 56.4677C38.4672 57.5046 39.7872 58.1645 41.2957 58.3531V62.2181C39.7872 62.0296 38.4672 61.3697 37.8072 60.5213C37.5244 60.1442 36.8644 60.0499 36.4873 60.3327C36.1102 60.6155 36.0159 61.2754 36.2987 61.6525C37.3358 62.9723 39.2215 63.915 41.2957 64.1035V67.4972C39.0329 67.3087 37.053 66.366 35.9216 64.9519C35.6387 64.5749 34.9788 64.4806 34.6016 64.7634C34.2245 65.0462 34.1302 65.7061 34.4131 66.0832C35.8273 67.9686 38.4672 69.0998 41.2957 69.3826V73.1534C37.9958 72.9649 35.073 71.6451 33.4702 69.5712C33.1874 69.1941 32.5274 69.0998 32.1503 69.3826C31.7732 69.6654 31.6789 70.3253 31.9617 70.7024C33.9417 73.1534 37.4301 74.756 41.2957 75.0388V78.9039C37.053 78.7153 33.2817 77.0185 31.2075 74.3789C30.9246 74.0019 30.2646 73.9076 29.8875 74.1904C29.5104 74.4732 29.4161 75.1331 29.699 75.5102C32.1503 78.5268 36.4873 80.5065 41.2957 80.7893V84.6543C36.4873 84.4658 32.1503 82.4861 29.8875 79.5638C29.6047 79.1867 28.9447 79.0924 28.5676 79.3752C28.1904 79.658 28.0962 80.3179 28.379 80.695C31.0189 84.0887 35.9216 86.2569 41.2957 86.5397V98.7006C41.2957 99.2662 41.7671 99.6433 42.2385 99.6433C42.7099 99.6433 43.1813 99.2662 43.1813 98.7006V86.634C48.5554 86.4455 53.4581 84.183 56.098 80.7893C56.3809 80.3179 56.3809 79.7523 55.9095 79.4695Z" fill="white"/>
<path d="M177.534 21.7764L177.251 26.9612L177.157 29.1294L173.762 90.4991L173.668 92.3845L173.48 95.8725L173.385 98.0407L173.197 101.906L130.864 101.529C130.581 101.529 130.204 101.529 129.921 101.529H129.733L123.604 101.434C123.227 101.434 122.85 101.434 122.567 101.434C106.068 101.152 87.0226 100.775 68.5432 100.303C45.9155 99.7375 24.5134 99.2662 15.0851 99.3605C13.0109 99.3605 10.8424 99.1719 9.52248 97.8521C8.76822 97.0037 8.39109 95.9668 8.48537 94.5527C8.76822 91.2533 9.05106 87.4825 9.42819 83.2403C9.61676 80.5065 9.8996 77.5841 10.1825 74.4732C10.8424 74.756 11.5967 74.9446 12.3509 75.0388C12.0681 77.9612 11.8795 80.695 11.691 83.3346C11.3138 87.5767 11.031 91.3475 10.7481 94.5527C10.6539 95.3069 10.8424 95.8725 11.1253 96.1553C11.8795 96.9094 13.7652 97.0037 15.0851 97.0037C24.5134 96.9094 44.9727 97.3808 68.6375 97.9464C87.1169 98.4178 106.162 98.7948 122.661 99.0777C122.944 99.0777 123.321 99.0777 123.698 99.0777L129.638 99.1719H129.733L141.235 98.9834L171.311 99.4547L171.405 97.8521L171.5 96.4381V95.6839L175.177 28.8466L175.271 26.6784L175.459 22.5305L100.694 25.83V27.244C99.9393 27.244 99.185 27.244 98.525 27.244V23.756L176.591 20.3623C177.062 20.5508 177.628 21.1165 177.534 21.7764Z" fill="#AAA050"/>
<path d="M14.4251 34.6913C14.5194 32.5231 14.5194 30.3549 14.6137 28.1867C14.6137 25.1701 17.0651 22.719 20.0821 22.6248C40.7299 21.8706 58.7379 20.7394 75.9915 19.6081C95.3194 18.3826 115.307 17.0628 139.255 16.3087C139.821 16.3087 140.292 15.7431 140.292 15.1775C140.292 14.6118 139.726 14.0462 139.161 14.1405C115.213 14.8946 95.2252 16.1201 75.8973 17.4399C58.5493 18.5712 40.6357 19.7024 19.9878 20.4566C15.8394 20.6451 12.4452 24.0388 12.4452 28.1867C12.4452 30.732 12.3509 33.183 12.2567 35.634C12.3509 35.634 12.3509 35.634 12.4452 35.7283C13.0109 35.2569 13.7652 34.9741 14.4251 34.6913Z" fill="#AAA050"/>
<path d="M194.222 48.4547V60.2385H211.852V48.4547H208.27V46.4751H217.604V48.4547H214.021V77.8669H217.604V79.8466H208.27V77.8669H211.852V62.1239H194.222V77.7727H197.804V79.7523H188.47V77.7727H192.053V48.4547H188.47V46.4751H197.804V48.4547H194.222Z" fill="white"/>
<path d="M241.174 78.0555H244.003V79.7523H239.289V77.207C239.006 77.5841 238.629 77.9612 238.252 78.3383C237.874 78.7153 237.403 78.9982 236.932 79.281C236.46 79.5638 235.8 79.7523 235.14 79.9409C234.48 80.1294 233.726 80.2237 232.783 80.2237C230.049 80.2237 227.975 79.5638 226.466 78.1497C225.052 76.7357 224.298 74.756 224.298 72.2107V57.4104H221.469V55.8078H226.183V71.9279C226.183 74.3789 226.749 76.0758 227.975 77.0185C229.2 77.9612 230.709 78.4325 232.689 78.4325C233.82 78.4325 234.763 78.244 235.517 77.7726C236.366 77.3956 237.026 76.83 237.592 76.2643C238.157 75.6987 238.534 75.1331 238.817 74.6617C239.1 74.0961 239.194 73.719 239.194 73.5305V57.4104H236.366V55.8078H241.08V78.0555H241.174Z" fill="white"/>
<path d="M256.165 78.0555V79.7523H248.528V78.0555H251.357V46.4751H248.528V44.7782H253.242V78.0555H256.165Z" fill="white"/>
<path d="M260.408 78.0555H263.236V57.3161H260.408V55.7135H265.122V57.5989C265.593 56.939 266.159 56.3734 267.008 55.902C267.762 55.4307 268.893 55.1479 270.402 55.1479C271.345 55.1479 272.193 55.2422 272.853 55.525C273.513 55.7135 274.079 55.9963 274.55 56.3734C275.022 56.6562 275.305 57.0333 275.587 57.4104C275.87 57.7874 276.059 58.1645 276.153 58.4473C276.342 58.1645 276.625 57.7874 276.907 57.4104C277.19 57.0333 277.567 56.6562 278.133 56.2791C278.604 55.902 279.17 55.6192 279.924 55.4307C280.584 55.2422 281.433 55.1479 282.376 55.1479C283.413 55.1479 284.356 55.3364 285.11 55.6192C285.958 55.902 286.618 56.3734 287.184 56.939C287.75 57.5046 288.221 58.1645 288.504 58.9187C288.787 59.6728 288.975 60.5213 288.975 61.3697V77.9612H291.804V79.6581H284.167V77.9612H286.996V61.464C286.996 60.0499 286.524 59.013 285.676 58.2588C284.827 57.5046 283.696 57.1276 282.281 57.1276C281.621 57.1276 280.961 57.2218 280.301 57.4104C279.642 57.5989 279.076 57.8817 278.604 58.2588C278.133 58.6359 277.756 59.1072 277.473 59.6728C277.19 60.2385 277.002 60.8041 277.002 61.5582V78.1497H279.83V79.8466H272.193V78.1497H275.022V61.464C275.022 60.8041 274.927 60.1442 274.645 59.5786C274.362 59.013 273.985 58.5416 273.607 58.1645C273.136 57.7874 272.665 57.5046 272.099 57.3161C271.533 57.1276 270.968 57.0333 270.308 57.0333C269.648 57.0333 268.988 57.1276 268.328 57.3161C267.668 57.5046 267.196 57.7874 266.631 58.1645C266.159 58.5416 265.782 59.013 265.499 59.5786C265.216 60.1442 265.028 60.8041 265.028 61.464V77.9612H267.856V79.6581H260.219V78.0555H260.408Z" fill="white"/>
<path d="M310.095 48.4547V60.2385H327.726V48.4547H324.143V46.4751H333.477V48.4547H329.894V77.8669H333.477V79.8466H324.143V77.8669H327.726V62.1239H310.095V77.7727H313.677V79.7523H304.344V77.7727H307.926V48.4547H304.344V46.4751H313.677V48.4547H310.095Z" fill="white"/>
<path d="M343.282 57.7874C342.056 58.2588 341.114 58.8244 340.359 59.5786L339.228 58.0703C340.171 57.1276 341.302 56.4677 342.811 55.902C344.225 55.4307 345.733 55.1479 347.148 55.1479C348.468 55.1479 349.693 55.3364 350.825 55.7135C351.956 56.0906 352.899 56.6562 353.747 57.3161C354.596 58.0703 355.256 58.9187 355.727 59.9557C356.199 60.9926 356.482 62.1239 356.482 63.4436V78.0555H359.97V79.7523H354.69V76.4529C354.407 76.83 354.03 77.207 353.559 77.6784C353.088 78.1497 352.522 78.5268 351.862 78.9039C351.202 79.281 350.353 79.5638 349.41 79.8466C348.468 80.1294 347.336 80.2237 346.111 80.2237C344.602 80.2237 343.188 79.9409 341.962 79.4695C340.737 78.9982 339.794 78.3383 339.039 77.4898C338.285 76.6414 337.625 75.6987 337.248 74.6617C336.871 73.6248 336.682 72.4935 336.682 71.3623C336.682 70.2311 336.871 69.0998 337.342 68.0629C337.814 67.0259 338.379 66.0832 339.228 65.2348C340.077 64.3863 341.019 63.8207 342.245 63.2551C343.471 62.7837 344.791 62.5009 346.299 62.5009C347.431 62.5009 348.468 62.5952 349.316 62.7837C350.165 62.9723 351.013 63.2551 351.673 63.6322C352.333 64.0093 352.993 64.3863 353.559 64.8577C354.125 65.329 354.502 65.8004 354.879 66.2717V63.6322C354.879 62.5009 354.69 61.464 354.219 60.6155C353.747 59.7671 353.182 59.013 352.522 58.5416C351.862 57.976 351.013 57.5989 350.165 57.3161C349.316 57.0333 348.373 56.939 347.525 56.939C345.733 57.1276 344.414 57.3161 343.282 57.7874ZM338.851 73.9076C339.134 74.756 339.699 75.5102 340.265 76.0758C340.925 76.7357 341.679 77.207 342.622 77.6784C343.565 78.0555 344.696 78.244 345.922 78.244C347.336 78.244 348.468 78.0555 349.505 77.6784C350.542 77.3013 351.39 76.7357 352.05 76.0758C352.71 75.4159 353.182 74.6618 353.559 73.9076C353.936 73.0592 354.03 72.2107 354.03 71.3623C354.03 70.5139 353.842 69.6654 353.559 68.817C353.182 67.9686 352.71 67.2144 352.05 66.6488C351.39 65.9889 350.542 65.5176 349.505 65.0462C348.468 64.6691 347.242 64.4806 345.922 64.4806C344.602 64.4806 343.565 64.6691 342.528 65.0462C341.585 65.4233 340.736 65.9889 340.171 66.6488C339.511 67.3087 339.039 68.0629 338.757 68.817C338.474 69.6654 338.285 70.5139 338.285 71.268C338.379 72.305 338.568 73.1534 338.851 73.9076Z" fill="white"/>
<path d="M380.995 78.0555H383.824V79.7523H379.109V77.207C378.827 77.5841 378.449 77.9612 378.072 78.3383C377.695 78.7153 377.224 78.9982 376.752 79.281C376.281 79.5638 375.621 79.7523 374.961 79.9409C374.301 80.1294 373.547 80.2237 372.604 80.2237C369.87 80.2237 367.796 79.5638 366.287 78.1497C364.873 76.7357 364.119 74.756 364.119 72.2107V57.4104H361.29V55.8078H366.004V71.9279C366.004 74.3789 366.57 76.0758 367.796 77.0185C369.021 77.9612 370.53 78.4325 372.51 78.4325C373.641 78.4325 374.584 78.244 375.338 77.7726C376.187 77.3956 376.847 76.83 377.412 76.2643C377.978 75.6987 378.355 75.1331 378.638 74.6617C378.921 74.0961 379.015 73.719 379.015 73.5305V57.4104H376.187V55.8078H380.901V78.0555H380.995Z" fill="white"/>
<path d="M401.737 71.1738C401.454 70.6081 400.983 70.1368 400.511 69.7597C399.946 69.3826 399.38 69.0056 398.626 68.817C397.872 68.5342 397.023 68.2514 396.08 68.0629C395.043 67.78 394.1 67.4972 393.157 67.1202C392.309 66.7431 391.555 66.2717 390.989 65.8004C390.423 65.2348 389.952 64.6691 389.575 63.915C389.198 63.1608 389.103 62.3124 389.103 61.2754C389.103 60.427 389.292 59.5786 389.669 58.8244C390.046 58.0703 390.518 57.4104 391.178 56.8447C391.838 56.2791 392.592 55.902 393.44 55.525C394.289 55.2422 395.326 55.0536 396.269 55.0536C397.683 55.0536 398.909 55.2422 399.852 55.6192C400.794 55.9963 401.549 56.4677 402.114 56.939V55.3364H403.811V60.8983H402.114V59.1072C401.454 58.4473 400.606 57.976 399.757 57.4104C398.814 56.939 397.683 56.6562 396.363 56.6562C394.855 56.6562 393.629 57.0333 392.592 57.7874C391.555 58.5416 391.083 59.6728 391.083 61.0869C391.083 62.5009 391.46 63.4436 392.309 64.1978C393.157 64.8577 394.383 65.4233 396.175 65.8947C397.306 66.1775 398.343 66.5545 399.38 66.9316C400.323 67.3087 401.171 67.7801 401.926 68.2514C402.586 68.817 403.151 69.4769 403.623 70.2311C404 70.9852 404.189 71.9279 404.189 73.0592C404.189 74.1904 404 75.1331 403.529 75.9815C403.151 76.83 402.586 77.5841 401.831 78.1497C401.077 78.7154 400.323 79.1867 399.38 79.4695C398.437 79.7523 397.4 79.9409 396.363 79.9409C395.043 79.9409 393.912 79.7523 392.969 79.4695C391.932 79.0924 391.083 78.6211 390.329 78.0555V79.7523H388.726V73.4362H390.329V75.793C391.083 76.4529 391.932 77.0185 392.969 77.4898C394.006 77.9612 395.137 78.1497 396.457 78.1497C398.249 78.1497 399.663 77.6784 400.794 76.83C401.926 75.9815 402.491 74.756 402.491 73.1534C402.114 72.3993 402.02 71.7394 401.737 71.1738Z" fill="white"/>
</g>
<defs>
<clipPath id="clip0_25_4">
<rect width="404" height="102" fill="white"/>
</clipPath>
</defs>
</svg>
