<svg width="260" height="67" viewBox="0 0 260 67" fill="none" xmlns="http://www.w3.org/2000/svg">
<g clip-path="url(#clip0_126_404)">
<path d="M68.6257 1.659C68.565 1.23201 68.383 0.866019 68.0189 0.683025C67.7156 0.50003 67.2908 0.439032 66.9268 0.561028L63.0435 1.29301C62.6794 1.29301 62.376 1.598 62.3153 1.96399C62.3153 2.26898 62.194 8.67378 62.1333 11.5407C62.1333 11.9067 62.4367 12.2727 62.8007 12.2727C63.1648 12.2727 63.4682 11.9677 63.5289 11.6017C63.5895 9.16177 63.7109 4.34291 63.7109 2.63497L67.2302 2.02498C67.4122 3.91593 67.7156 8.2468 67.4729 11.2967C67.4122 11.6627 67.7156 12.0287 68.1403 12.0897H68.201C68.565 12.0897 68.8684 11.7847 68.9291 11.4187C69.1111 8.1248 68.7471 3.48894 68.6257 1.659Z" fill="white"/>
<path d="M18.6886 43.8697C18.1425 44.1747 17.5964 44.4187 17.0503 44.5407C17.5357 44.0527 17.8391 43.4428 17.9605 42.7718C18.0211 42.4058 17.7784 42.1008 17.475 42.0398C17.1717 41.9788 16.8076 42.2228 16.7469 42.5278C16.6256 43.1988 16.1402 43.7477 15.5941 44.0527C15.5334 44.0527 15.5334 44.1137 15.4727 44.1137C15.1086 43.9917 14.7446 43.9917 14.3199 44.1747C13.9558 44.3577 13.7738 44.6017 13.5917 44.7847L13.4704 44.9067C13.0456 45.3947 12.4389 45.6997 11.7714 45.9437V42.8938C11.8321 42.8938 11.8928 42.9548 12.0141 42.9548C12.1962 42.9548 12.4389 42.8328 12.5602 42.6498C13.0456 41.9178 13.5917 41.0638 14.3199 40.6368C14.5019 40.5148 14.7446 40.4538 15.048 40.3319C15.048 40.3929 15.048 40.3928 15.1086 40.4538C15.23 40.6368 15.412 40.7588 15.6547 40.7588C15.7761 40.7588 15.8368 40.7588 15.9581 40.6978L16.8076 40.2099C16.8683 40.2099 16.8683 40.2099 16.929 40.2099C17.4144 40.2099 17.8998 40.2709 18.3852 40.1489C19.2347 39.9659 19.9021 39.3559 20.0235 38.5629C20.0841 38.1969 19.8414 37.8919 19.5381 37.8309C19.174 37.7699 18.8706 38.0139 18.8099 38.3189C18.7493 38.6239 18.3852 38.8069 18.0818 38.8679C18.0211 38.8679 17.9605 38.8679 17.9605 38.8679C18.0211 38.5629 17.9605 38.1969 17.7178 37.7699L17.5964 37.7089C17.475 37.5259 17.4144 37.4039 17.4144 37.2819C17.4144 36.916 17.111 36.672 16.8076 36.672C16.4435 36.672 16.2008 36.977 16.2008 37.2819C16.2008 37.7089 16.3829 38.0749 16.5649 38.3189L16.6256 38.4409C16.7469 38.6239 16.7469 38.6849 16.7469 38.7459C16.7469 38.7459 16.6256 38.8069 16.5649 38.8679L16.3829 38.9289C15.2907 38.9289 14.3805 39.1119 13.6524 39.5389C12.8029 40.0269 12.2568 40.7588 11.7714 41.4908C11.7714 41.4908 11.7714 41.4908 11.7107 41.4908L11.6501 36.916C11.6501 36.916 11.6501 36.916 11.7107 36.916C12.3782 36.794 13.0456 36.672 13.7131 36.55C13.7738 36.611 13.8344 36.611 13.9558 36.611C14.0165 36.611 14.0165 36.611 14.0771 36.611C14.2592 36.611 14.5019 36.489 14.5626 36.306C14.8659 36.245 15.1693 36.184 15.4727 36.123C15.5334 36.123 15.5334 36.123 15.5941 36.123C15.7154 36.123 15.8368 36.062 15.9581 36.001C16.5649 35.818 17.1717 35.696 17.7784 35.513C18.0818 35.391 18.2638 35.086 18.2032 34.72C18.0818 34.415 17.7784 34.232 17.4144 34.293C17.2323 34.354 16.9896 34.415 16.8076 34.476L17.0503 33.988C17.2323 33.6831 17.111 33.3171 16.8076 33.1341C16.5042 32.9511 16.1402 33.0731 15.9581 33.3781L15.1693 34.964C14.9873 35.025 14.8659 35.025 14.6839 35.086C14.6232 34.72 14.5626 34.354 14.4412 33.988C14.3199 33.6831 13.9558 33.5001 13.6524 33.6831C13.349 33.805 13.167 34.171 13.349 34.476C13.4704 34.781 13.5311 35.086 13.5311 35.391C12.9243 35.513 12.3175 35.635 11.7107 35.696V32.7071C11.7107 32.7071 11.7107 32.7071 11.7714 32.7071C11.8928 32.7071 12.0141 32.7071 12.0748 32.6461C12.6209 32.3411 13.2883 32.2801 14.0165 32.2191C14.9266 32.1581 15.7761 32.0361 16.6256 31.4871C16.929 31.3041 16.9896 30.9381 16.8076 30.6331C16.6256 30.3282 16.2615 30.2672 15.9581 30.4501C15.7154 30.5721 15.4727 30.6941 15.23 30.7551C15.3514 30.3892 15.3514 30.0232 15.23 29.6572C15.1086 29.3522 14.8053 29.1692 14.4412 29.2302C14.1378 29.3522 13.9558 29.6572 14.0165 30.0232C14.0771 30.2672 14.0165 30.5721 13.7738 30.7551C13.7131 30.8161 13.6524 30.8771 13.5917 30.9381C12.9243 30.9991 12.3175 31.1211 11.7107 31.3651V28.9252C11.8321 28.9252 11.9535 28.8642 12.0141 28.8032C12.6209 28.3152 13.0456 27.7052 13.4097 27.0343C13.5917 26.7293 13.4704 26.3633 13.167 26.1803C12.8636 25.9973 12.4995 26.1193 12.3175 26.4243C12.1355 26.7903 11.8928 27.0953 11.6501 27.4002V26.8513C11.6501 26.4853 11.3467 26.2413 11.0433 26.2413C10.6792 26.2413 10.4365 26.5463 10.4365 26.8513V29.1692C10.0118 28.9252 9.70842 28.6202 9.40503 28.2542C9.223 28.0102 8.79826 27.9492 8.55556 28.1322C8.31285 28.3152 8.25217 28.7422 8.4342 28.9862C8.98029 29.6572 9.64774 30.2062 10.4365 30.5721V32.9511C10.3759 32.9511 10.3759 32.9511 10.3152 32.8901H10.1938C10.1938 32.8291 10.1938 32.8291 10.1938 32.7681L9.95112 31.7921C9.89045 31.4871 9.52639 31.2431 9.223 31.3651C8.91962 31.4261 8.67691 31.7921 8.79826 32.0971L8.98029 32.7681L8.55556 32.8291C8.31285 32.3411 8.1915 31.7921 8.13082 31.2431C8.13082 30.8771 7.82744 30.6331 7.46337 30.6941C7.09931 30.6941 6.85661 30.9991 6.91728 31.3651C6.97796 31.8531 7.03864 32.2801 7.22067 32.7681L5.0363 32.5241C4.67224 32.4631 4.36886 32.7681 4.36886 33.0731C4.30818 33.4391 4.61157 33.7441 4.91495 33.7441L8.00947 34.049C8.07014 34.049 8.13082 34.049 8.1915 34.049L10.1938 34.232H10.2545C10.3152 34.232 10.3759 34.232 10.4365 34.171L10.4972 41.1858C10.4365 41.1248 10.3152 41.1248 10.2545 41.0638C9.95112 40.9418 9.46571 40.6368 9.28368 40.1489C9.28368 40.0879 9.223 39.9659 9.223 39.9049C9.16232 39.7219 9.10165 39.4779 8.91962 39.2339C9.10165 38.4409 9.04097 37.5259 8.61623 36.794C8.4342 36.489 8.07014 36.367 7.76676 36.55C7.46337 36.733 7.34202 37.0989 7.52405 37.4039C7.70608 37.7699 7.76676 38.1969 7.76676 38.6239C7.46337 38.6239 7.15999 38.6239 6.85661 38.6849C6.49255 38.7459 6.12849 38.7459 5.94646 38.6239C5.88578 38.5629 5.8251 38.5019 5.76442 38.4409C5.64307 38.3189 5.52172 38.1969 5.33969 38.0749C5.40036 37.9529 5.40036 37.8919 5.46104 37.7699C5.58239 37.3429 5.52172 36.794 5.27901 36.306C5.09698 35.94 4.7936 35.635 4.55089 35.391C4.30818 35.147 3.94412 35.147 3.70141 35.391C3.45871 35.635 3.45871 36.001 3.70141 36.245C3.88344 36.489 4.12615 36.672 4.2475 36.916C4.30818 37.0989 4.30818 37.2819 4.2475 37.4039C4.2475 37.4649 4.18683 37.5259 4.18683 37.5869C4.12615 37.6479 4.12615 37.7089 4.06547 37.8309L0.606898 37.5259C0.242837 37.4649 0.000129908 37.7699 -0.0605469 38.0749C-0.0605469 38.4409 0.18216 38.6849 0.485544 38.7459L4.2475 39.0509C4.36886 39.1729 4.49021 39.2339 4.67224 39.2339C4.73292 39.2339 4.73292 39.2339 4.7936 39.2339C4.85427 39.2339 4.85427 39.2949 4.91495 39.3559C5.0363 39.4779 5.15766 39.5999 5.33969 39.7219C5.88578 40.0879 6.49255 39.9659 7.03864 39.9659C7.46337 39.9049 7.76676 39.9049 7.88811 40.0269C7.94879 40.0879 8.00947 40.2709 8.07014 40.3928C8.13082 40.5148 8.13082 40.6368 8.1915 40.6978C8.4342 41.3688 9.04097 41.9178 9.82977 42.2838C10.0725 42.4058 10.3152 42.4668 10.6186 42.5278V45.5777C9.70842 44.9677 8.67691 44.5407 7.82744 44.2967C8.07014 43.3818 7.82744 42.3448 7.09931 41.7348C6.85661 41.4908 6.43187 41.4908 6.24984 41.7958C6.00713 42.0398 6.00713 42.4668 6.31052 42.6498C6.67458 42.9548 6.79593 43.5038 6.67458 43.9307C6.43187 43.8697 6.24984 43.8087 6.06781 43.8087C5.70375 43.7477 5.33969 43.6867 4.91495 43.6257C4.73292 43.3818 4.61157 43.0768 4.55089 42.6498C4.55089 42.5278 4.49021 42.4058 4.49021 42.2228C4.42953 41.7958 4.30818 41.3078 4.12615 40.8198C3.82277 40.2099 3.216 39.4779 2.30585 39.4779C1.94179 39.4779 1.69908 39.7219 1.6384 40.0879C1.6384 40.4538 1.88111 40.6978 2.24517 40.7588C2.54855 40.7588 2.85194 41.0638 2.97329 41.4298C3.09465 41.7348 3.15532 42.1008 3.27668 42.5278C3.27668 42.6498 3.33735 42.8328 3.33735 42.9548C3.39803 43.0768 3.39803 43.2598 3.45871 43.4428C2.48788 43.1988 1.82043 42.8938 1.3957 42.4058C1.15299 42.1618 0.788928 42.1618 0.546221 42.4058C0.303514 42.6498 0.303514 43.0158 0.546221 43.2598C1.15299 43.8697 2.06314 44.2967 3.216 44.6017C3.58006 44.6627 4.0048 44.7237 4.36886 44.7847C4.49021 44.8457 4.61157 44.9067 4.67224 44.9067C4.73292 44.9067 4.7936 44.9067 4.85427 44.8457C5.15766 44.9067 5.46104 44.9067 5.76442 44.9677C7.28134 45.2727 9.28368 46.0047 10.5579 47.1026L10.7399 63.3892C10.7399 63.7551 11.0433 63.9991 11.3467 63.9991C11.7107 63.9991 11.9535 63.6941 11.9535 63.3892L11.8928 54.6664C12.0141 54.6664 12.1355 54.6054 12.2568 54.5444L13.6524 53.5685C13.9558 53.3855 14.0165 52.9585 13.8344 52.7145C13.6524 52.4095 13.2883 52.3485 12.985 52.5315L11.9535 53.2635L11.8928 47.2246C12.4389 47.0416 12.985 46.7977 13.5311 46.4927C13.5917 46.5537 13.5917 46.6147 13.6524 46.6147C14.0165 46.9806 14.3805 47.3466 14.6839 47.7736C14.8053 47.9566 14.9873 48.0786 15.23 48.0786C15.3514 48.0786 15.4727 48.0786 15.5334 47.9566C15.8368 47.7736 15.8974 47.4076 15.7154 47.1026C15.412 46.5537 14.9873 46.0657 14.5019 45.6387C14.5019 45.6387 14.5019 45.6387 14.5626 45.5777L14.6839 45.4557C14.8053 45.3337 14.8659 45.2117 14.9873 45.1507C15.1086 45.0897 15.412 45.2117 15.6547 45.3337C15.8368 45.3947 16.0188 45.4557 16.2008 45.5167C17.3537 45.8217 18.4459 45.3337 19.4167 44.7847C19.7201 44.6017 19.8414 44.2357 19.6594 43.9307C19.356 43.8087 18.992 43.6867 18.6886 43.8697Z" fill="white"/>
<path d="M90.5296 58.5702L89.3767 32.524C89.4374 31.67 88.7093 30.1451 87.8598 29.2911C87.435 28.8641 87.0103 28.6201 86.7069 28.6201L66.2588 29.0471C64.9846 29.0471 63.9531 30.0841 63.9531 31.304L64.4385 61.0711C64.4385 61.5591 64.4992 61.8641 64.6812 61.9861C64.924 62.2301 65.4094 62.1691 66.0161 62.1081C66.1982 62.1081 66.3802 62.0471 66.6229 62.0471L72.5085 62.3521V59.3632C72.3265 59.0582 72.1445 58.7532 71.9018 58.4482L71.0523 58.8752C70.9916 58.9362 70.8703 58.9362 70.8096 58.9362C70.6276 58.9362 70.4455 58.8142 70.3849 58.6922C70.3242 58.5702 70.2635 58.4482 70.3242 58.2652C70.3849 58.1432 70.4455 58.0212 70.5669 58.0212L71.1737 57.6552C71.0523 57.5332 70.8703 57.4112 70.7489 57.2893L69.8994 57.7772C69.8388 57.8382 69.7174 57.8382 69.6567 57.8382C69.4747 57.8382 69.2927 57.7162 69.232 57.5942C69.1713 57.4722 69.1107 57.3503 69.1713 57.1673C69.232 57.0453 69.2927 56.9233 69.414 56.9233L69.9601 56.6183C69.8388 56.5573 69.7781 56.4963 69.6567 56.3743L68.6859 56.9233H68.6252C68.5646 56.9233 68.5646 56.9843 68.4432 56.9843C68.2612 56.9843 68.0791 56.8623 68.0185 56.7403C67.9578 56.6183 67.9578 56.4963 67.9578 56.3743C67.9578 56.2523 68.0791 56.1303 68.2005 56.0083L68.6252 55.7643C68.2005 55.5203 67.8971 55.3983 67.8364 55.3983H67.7758V55.3373C67.5331 55.1543 67.4724 54.9103 67.5937 54.7273C67.6544 54.4833 67.9578 54.3613 68.1398 54.4223H68.2005C68.2005 54.4223 68.2612 54.4223 68.3219 54.4833H68.3825C68.5039 54.5443 68.6252 54.6053 68.8679 54.7273L68.7466 54.3613C68.6859 54.1174 68.8073 53.8734 69.05 53.7514H69.1107C69.232 53.6904 69.3534 53.7514 69.4747 53.8124C69.5961 53.8734 69.6567 53.9954 69.7174 54.1173L70.0208 54.9713V54.9103C70.0815 54.7883 70.2028 54.7273 70.3242 54.6663C70.4455 54.6053 70.5669 54.6053 70.6882 54.6663C70.7489 54.7273 70.8703 54.7883 70.931 54.9713L71.295 55.8863C71.3557 55.8253 71.4164 55.7643 71.5377 55.7643C71.7804 55.7033 72.0231 55.8253 72.1445 56.0693L72.6906 57.5942V53.2024C72.5086 52.8974 72.3265 52.5924 72.0838 52.2874L71.1737 52.7754H70.9916C70.8096 52.7754 70.6276 52.6534 70.5669 52.5314C70.5062 52.4704 70.5062 52.3484 70.5062 52.2264C70.5062 52.1044 70.6276 51.9824 70.7489 51.9214L71.4164 51.5554C71.295 51.4334 71.113 51.3114 70.9916 51.1894L70.0815 51.6774C70.0208 51.7384 69.8994 51.7384 69.8388 51.7384C69.6567 51.7384 69.4747 51.6164 69.414 51.4944C69.3534 51.3724 69.2927 51.2504 69.3534 51.0674C69.414 50.9454 69.4747 50.8234 69.5961 50.8234L70.1422 50.5185C70.0208 50.4575 69.8994 50.3355 69.7781 50.2745L68.8679 50.8234C68.8073 50.8844 68.6859 50.8844 68.6252 50.8844C68.4432 50.8844 68.2612 50.7624 68.2005 50.6405C68.1398 50.5185 68.0791 50.3965 68.1398 50.2135C68.2005 50.0915 68.2612 49.9695 68.3825 49.9695L68.8073 49.7255C68.3219 49.4815 68.0185 49.3595 67.9578 49.2985C67.8364 49.2375 67.7151 49.1155 67.6544 48.9935C67.5937 48.8715 67.6544 48.7495 67.7151 48.6275C67.7758 48.5055 67.8364 48.3835 67.9578 48.3835C68.0791 48.3225 68.2005 48.3835 68.2612 48.4445C68.3219 48.4445 68.5646 48.5665 68.8679 48.7495L68.7466 48.3835C68.6859 48.1395 68.8073 47.8955 69.05 47.7735C69.1713 47.7125 69.2927 47.7125 69.414 47.7735C69.5354 47.8345 69.5961 47.8955 69.6567 48.0175L69.9601 48.8715C70.0208 48.7495 70.1422 48.6275 70.2635 48.5665C70.5062 48.5055 70.7489 48.6275 70.8703 48.8715L71.2343 49.7865C71.295 49.7255 71.3557 49.6645 71.4164 49.6645C71.6591 49.6035 71.9018 49.7255 72.0231 49.9695L72.5692 51.4334C72.7513 51.6164 72.9333 51.8604 73.0546 52.1044C73.358 51.2504 73.6007 50.0305 73.7221 48.5665C73.7221 48.5665 73.7221 48.5055 73.7221 48.4445C73.7828 47.9565 73.7828 47.4685 73.7828 46.9196L72.5692 45.9436H70.931C70.6882 45.9436 70.4455 45.7606 70.4455 45.4556C70.4455 45.2116 70.6882 44.9676 70.931 44.9676H71.3557L70.3242 44.1137C70.2028 43.9917 70.1422 43.8697 70.1422 43.6867C70.1422 43.5647 70.2028 43.5037 70.2635 43.3817C70.4455 43.1987 70.6882 43.1377 70.931 43.3207L72.1445 44.2966L72.0231 43.2597C72.0231 43.0767 72.0838 42.9547 72.1445 42.8937C72.2052 42.8327 72.3265 42.7717 72.4479 42.7717C72.5692 42.7107 72.7513 42.7717 72.8119 42.8327C72.9333 42.8937 72.994 43.0157 72.994 43.1987L73.2367 45.1506L73.8434 45.6386C73.8434 43.9917 73.7828 42.4667 73.7221 41.4297L72.4479 39.5998C72.2658 39.3558 72.3265 39.0508 72.5692 38.8678C72.6906 38.8068 72.8726 38.7458 72.994 38.8068C73.1153 38.8678 73.176 38.9288 73.2367 39.0508L73.7221 39.7218C73.7828 39.5998 73.9041 39.5388 74.0861 39.5388C74.2075 39.5388 74.3289 39.5388 74.3895 39.5998C74.4502 39.6608 74.5109 39.7218 74.5716 39.8438L75.1783 39.0508C75.239 38.9288 75.3604 38.8678 75.4817 38.8068C75.6031 38.7458 75.7851 38.8068 75.8458 38.8678C76.0278 39.0508 76.0885 39.3558 75.9671 39.5998L74.6929 41.3687C74.7536 41.9177 74.7536 42.7717 74.8143 43.7477L75.421 43.2597L75.6637 41.1857C75.7244 40.9417 75.9671 40.7588 76.2098 40.7588H76.2705C76.5132 40.8197 76.7559 41.0637 76.6346 41.3687L76.5132 42.3447L77.6661 41.3687C77.7874 41.3077 77.9088 41.2467 78.0301 41.2467C78.1515 41.2467 78.2728 41.3077 78.3942 41.4297C78.5155 41.6127 78.5156 41.8567 78.3335 42.0397L77.2413 42.9547H77.7268C78.0301 42.9547 78.2122 43.1377 78.2122 43.4427C78.2122 43.6867 78.0301 43.9307 77.7268 43.9307H76.0278L74.8749 44.8456C74.8749 45.3946 74.8749 45.9436 74.8749 46.4926C74.8749 46.5536 74.8749 46.6756 74.8749 46.7366C74.8749 47.0416 74.8749 47.3466 74.8143 47.7125L75.3604 47.4685L75.6031 45.6386C75.6031 45.5166 75.6637 45.3946 75.7851 45.2726C75.9065 45.2116 76.0278 45.1506 76.0885 45.2116C76.2098 45.2116 76.3312 45.2726 76.4525 45.3946C76.5132 45.5166 76.5739 45.6386 76.5132 45.7606L76.3919 46.9806L76.7559 46.7976L76.938 44.9676C76.9986 44.7236 77.2413 44.5406 77.484 44.5406C77.6054 44.5406 77.7268 44.6016 77.8481 44.7236C77.9088 44.8456 77.9695 44.9676 77.9088 45.1506L77.7874 46.3706L78.9403 45.8826C79.001 45.8216 79.183 45.8216 79.3043 45.8216C79.4257 45.8826 79.5471 46.0046 79.6077 46.1266C79.6684 46.3706 79.6077 46.6146 79.365 46.7366L78.2122 47.2246L78.8796 47.7735C79.001 47.8345 79.0616 47.9565 79.1223 48.0785C79.1223 48.2005 79.1223 48.3225 79.0616 48.4445V48.5055H79.001H78.9403C78.8796 48.5665 78.8189 48.5665 78.6976 48.5665C78.6369 48.5665 78.4549 48.5665 78.3942 48.4445L77.2413 47.5905L76.8773 47.7125L77.6054 48.2615C77.7874 48.4445 77.8481 48.7495 77.6661 48.9325C77.6054 49.0545 77.4234 49.1765 77.2413 49.1765C77.1807 49.1765 77.12 49.1765 77.0593 49.1155H76.9986L76.938 49.0545L75.7244 48.1395L74.6929 48.5665C74.5109 50.5795 74.1468 52.0434 73.6007 53.0194V55.3983C73.6007 55.3983 73.6007 55.3983 73.6614 55.3373L74.2075 53.8124C74.2682 53.5684 74.5716 53.4464 74.8143 53.5074H74.8749C74.9356 53.5684 74.9963 53.6294 75.057 53.6904L75.421 52.7144C75.4817 52.4704 75.7851 52.3484 76.0278 52.4094C76.1492 52.4094 76.2705 52.5314 76.3312 52.6534V52.7144L76.6346 51.9214C76.6952 51.7994 76.7559 51.7384 76.8773 51.6774C76.9986 51.6164 77.12 51.6164 77.2413 51.6164C77.3627 51.6774 77.484 51.7384 77.5447 51.8604C77.6054 51.9824 77.6054 52.1044 77.6054 52.2264L77.484 52.5314C77.8481 52.3484 78.0908 52.2874 78.0908 52.2264C78.3335 52.1654 78.5762 52.2264 78.6976 52.4704C78.7583 52.5924 78.7583 52.7144 78.7583 52.8364C78.6976 52.9584 78.5762 53.0804 78.4549 53.1414H78.3942C78.3942 53.1414 78.3942 53.1414 78.3335 53.1414C78.2122 53.2024 77.9695 53.3244 77.5447 53.5074L78.0301 53.7514C78.1515 53.7514 78.2122 53.8734 78.2728 53.9953C78.3335 54.1173 78.2728 54.3003 78.2122 54.4223C78.1515 54.5443 77.9695 54.6663 77.7874 54.6663C77.7268 54.6663 77.6054 54.6663 77.5447 54.6053L76.6346 54.1173C76.5132 54.1783 76.4525 54.2393 76.3312 54.3613L76.8773 54.6663C77.12 54.7883 77.1807 55.0323 77.12 55.2763L77.0593 55.3373C76.938 55.4593 76.7559 55.5813 76.6346 55.5813H76.4525L75.4817 55.0323C75.3604 55.1543 75.1783 55.2763 75.057 55.3983L75.7244 55.7643C75.8458 55.8863 75.9671 56.0083 75.9671 56.1303C75.9671 56.2523 75.9671 56.3743 75.9064 56.4353C75.8458 56.5573 75.6637 56.7403 75.4817 56.7403C75.421 56.7403 75.3604 56.7403 75.2997 56.6793H75.239H75.1783L74.3289 56.1913C74.0861 56.4963 73.9041 56.8013 73.7221 57.1063V62.1691L82.8843 62.6571V59.2412C81.5494 60.7052 79.4864 60.8881 78.6369 60.8881C78.3942 60.8881 78.2728 60.8881 78.2728 60.8881C78.0301 60.8881 77.8481 60.6441 77.8481 60.3392C77.8481 60.0952 78.0908 59.9122 78.3335 59.9122C78.3335 59.9122 78.3335 59.9122 78.3942 59.9122C78.5155 59.9122 79.365 59.9732 80.3358 59.7292C81.6101 59.3632 82.5202 58.6312 82.945 57.4722V55.2763C81.6707 56.5573 79.7898 56.6793 79.2437 56.6793C79.1223 56.6793 79.0616 56.6793 79.0616 56.6793C78.8189 56.6793 78.6369 56.4353 78.6369 56.1913C78.6369 56.0693 78.6976 55.9473 78.8189 55.8863C78.9403 55.8253 79.0616 55.7643 79.183 55.7643C79.3043 55.7643 82.0955 55.9473 83.0056 53.6294V51.4334C81.7921 52.5314 80.0931 52.5314 80.0325 52.5314C79.9111 52.5314 79.7898 52.4704 79.6684 52.4094C79.6077 52.3484 79.5471 52.2264 79.5471 52.0434C79.5471 51.7994 79.7898 51.5554 80.0325 51.5554C80.1538 51.5554 82.2775 51.5554 83.0056 49.7865V48.2005C82.1562 48.8715 81.1247 48.9935 81.064 48.9935C80.9426 48.9935 80.8213 48.9935 80.6999 48.8715C80.5786 48.8105 80.5179 48.6885 80.5179 48.5665C80.5179 48.3225 80.6999 48.0785 80.9426 48.0175C80.9426 48.0175 82.5809 47.8345 83.0056 46.5536C83.0056 46.4926 83.0663 46.4926 83.0663 46.4926C83.0663 46.4926 83.0663 46.4316 83.127 46.4316C83.1877 46.3706 83.1877 46.3706 83.1877 46.3706L83.2483 46.3096H83.309H83.3697C83.4304 46.3096 83.4304 46.3096 83.4304 46.3096H83.4911C83.4911 46.3096 83.491 46.3096 83.5517 46.3096C83.5517 46.3096 83.6124 46.3096 83.6124 46.3706C83.6124 46.3706 83.6731 46.3706 83.6731 46.4316L83.7338 46.4926C83.7338 46.5536 83.7944 46.5536 83.7944 46.5536C84.2798 47.8345 85.8574 48.0175 85.8574 48.0175C86.1001 48.0175 86.2822 48.2615 86.2822 48.5665C86.2822 48.6885 86.2215 48.8105 86.1001 48.8715C85.9788 48.9325 85.8574 48.9935 85.7361 48.9935C85.6754 48.9935 84.6439 48.8715 83.7944 48.2005V49.7865C84.4619 51.4944 86.7069 51.5554 86.7676 51.5554C87.0103 51.5554 87.253 51.7384 87.253 52.0434C87.253 52.1654 87.1923 52.2874 87.1317 52.4094C87.071 52.5314 86.9496 52.5314 86.7676 52.5314C86.7069 52.5314 85.008 52.5314 83.7944 51.4334V53.6904C84.7046 55.9473 87.6171 55.8253 87.6171 55.8253C87.7384 55.8253 87.8598 55.8863 87.9811 55.9473C88.1025 56.0083 88.1025 56.1303 88.1632 56.2523C88.1632 56.3743 88.1025 56.4963 88.0418 56.6183C87.9811 56.7403 87.8598 56.7403 87.7384 56.8013C87.7384 56.8013 87.6777 56.8013 87.5564 56.8013C87.0103 56.8013 85.1293 56.6793 83.8551 55.3983V57.5942C84.2798 58.6922 85.19 59.4852 86.4642 59.8512C87.435 60.0952 88.3452 60.0342 88.4059 60.0342C88.5272 60.0342 88.6486 60.0342 88.7699 60.1562C88.8913 60.2172 88.952 60.3392 88.952 60.4612C88.952 60.7052 88.7699 60.9491 88.5272 61.0101C88.5272 61.0101 88.3452 61.0101 88.1632 61.0101C87.3137 61.0101 85.2507 60.8271 83.9158 59.3632V62.8401L89.0733 63.0841C89.8014 63.1451 90.5296 59.6682 90.5296 58.5702Z" fill="white"/>
<path d="M98.3569 62.7791H99.8132L100.238 19.1655H98.8423L98.3569 62.7791Z" fill="white"/>
<path d="M102.977 19.1355L102.717 63.6642L104.113 63.6724L104.373 19.1438L102.977 19.1355Z" fill="white"/>
<path d="M107.194 19.1657L106.934 63.6943L108.33 63.7026L108.59 19.1739L107.194 19.1657Z" fill="white"/>
<path d="M94.0456 19.1573L93.3755 63.6815L94.7709 63.7027L95.4411 19.1785L94.0456 19.1573Z" fill="white"/>
<path d="M91.2578 60.3392C91.1972 61.1932 91.0151 61.9861 90.6511 62.6571C90.5297 62.9011 90.3477 63.2061 90.2263 63.4501C90.105 63.6331 89.8623 63.7551 89.6196 63.7551C89.4982 63.7551 89.3162 63.6941 89.1948 63.6331C89.0735 63.5111 88.9521 63.3891 88.8915 63.2061C88.8308 63.0231 88.8914 62.8401 89.0128 62.6571C89.0128 62.6571 89.0128 62.6571 89.0128 62.5961C89.4982 61.9251 89.7409 61.1322 89.8016 60.2172C90.0443 56.8013 90.0443 52.0434 89.923 47.2246V47.1636C89.8623 45.5776 89.8016 43.9307 89.6803 42.3447C89.6803 42.2837 89.6803 42.2837 89.6803 42.2227C89.4375 38.1359 89.0735 34.354 88.5274 31.4871C88.224 29.7791 86.7071 28.5592 85.0081 28.6201C83.7339 28.6811 82.5204 28.7421 81.3069 28.7421C81.1855 28.8641 81.0035 28.9251 80.8214 28.9251C80.6394 28.9251 80.5181 28.8641 80.3967 28.8031C75.2392 29.0471 70.6277 29.3521 66.077 29.6571L64.6814 29.7791L64.9241 61.9861V62.1081C64.9241 62.4741 64.6207 62.7791 64.196 62.7791C63.8319 62.7791 63.4679 62.4741 63.4679 62.0471V61.8641L63.2252 29.7791C60.4947 29.7791 57.9463 29.7791 55.4585 29.8401C48.8448 29.9011 42.5344 29.9621 33.8576 29.1081C33.6149 29.1081 33.3115 29.0471 33.0688 29.0471C32.8261 29.0471 32.5834 28.8641 32.462 28.6201C32.4014 28.4982 32.4014 28.3762 32.4014 28.2542C32.4014 28.1932 32.462 28.0712 32.462 28.0102C32.5834 27.7662 32.8868 27.5832 33.1902 27.6442C33.4329 27.6442 33.6756 27.7052 33.9183 27.7052C35.0711 27.8272 36.1633 27.9492 37.2555 28.0102L37.6196 20.0804V19.8364C37.6196 19.4704 37.923 19.1654 38.3477 19.1654C38.7118 19.1654 39.0151 19.5314 39.0151 19.8974V20.0804L38.7724 28.1932C39.7433 28.2542 40.6534 28.3152 41.5636 28.3762L41.8669 20.0194V19.8364C41.8669 19.4704 42.231 19.1044 42.5951 19.1654C42.9591 19.1654 43.2625 19.5314 43.2625 19.8974V20.0194L43.0198 28.4372C43.9906 28.4982 44.9008 28.4982 45.8109 28.4982L46.0536 19.9584V19.8364C46.0536 19.4704 46.4177 19.1044 46.7818 19.1654C47.1458 19.1654 47.4492 19.5314 47.4492 19.8974V19.9584L47.2065 28.4982C48.1773 28.4982 49.0875 28.4982 49.9976 28.4982L50.2403 19.8974V19.7144C50.2403 19.3484 50.5437 18.9824 50.9685 19.0434C51.3325 19.0434 51.6359 19.4094 51.6359 19.7754V19.8974L51.4539 28.5592C52.6067 28.5592 53.7596 28.5592 54.9731 28.5592L55.2158 19.8364C55.2158 19.4704 55.5192 19.1654 55.944 19.1654C56.308 19.1654 56.6114 19.4704 56.6114 19.8364V19.8974L56.3687 28.4982C57.2788 28.4982 58.2497 28.4982 59.1598 28.4982L59.4025 19.8974V19.8364C59.4632 19.4704 59.7666 19.1654 60.1307 19.1654C60.4947 19.1654 60.7981 19.4704 60.7981 19.7754C60.7981 19.8364 60.7981 19.8364 60.7981 19.8974L60.5554 28.4982C61.4655 28.4982 62.4364 28.4982 63.3465 28.4982L63.5892 19.7754V19.6534C63.7106 19.7144 63.8319 19.7754 63.9533 19.7754C64.3174 19.7754 64.6814 19.4704 64.6207 19.0434V18.5555C64.8028 18.6775 64.9848 18.9214 64.9848 19.1654V19.7144L64.7421 28.4372L66.0163 28.3762C66.5017 28.3152 67.0478 28.3152 67.5332 28.2542L67.7759 19.7144V19.1654C67.7759 18.7994 68.14 18.4945 68.5041 18.4945C68.8681 18.4945 69.1715 18.7994 69.1715 19.2264V19.7144L68.9288 28.1932C69.8389 28.1322 70.8098 28.0712 71.7199 28.0102L71.9626 19.6534V19.1654C71.9626 18.7994 72.266 18.4945 72.6908 18.4945C73.0548 18.4945 73.3582 18.8604 73.3582 19.2264V19.6534L73.1155 27.8882C74.0256 27.8272 74.9965 27.7662 75.9066 27.7052L76.1493 19.5924V19.1654C76.1493 18.7994 76.5134 18.4945 76.8774 18.4945C77.2415 18.4945 77.5449 18.7994 77.5449 19.2264V19.5924L77.3022 27.6442C78.2123 27.5832 79.1832 27.5222 80.0933 27.5222L80.336 19.5314V19.1654C80.336 18.7994 80.7001 18.4945 81.0642 18.4945C81.4282 18.4945 81.7316 18.7994 81.7316 19.2264V19.5314L81.4889 27.4612C82.399 27.4002 83.3092 27.4002 84.28 27.3392L84.5227 19.4704V19.1044C84.5227 18.7384 84.8868 18.3725 85.2508 18.4335C85.6149 18.4335 85.9183 18.7994 85.9183 19.1654V19.4704L85.8576 27.3392C87.3745 27.5222 88.7094 28.4982 89.4375 29.7791L89.6196 19.4094V19.1044H91.0151V19.4094L90.8331 37.9529C91.5006 45.3336 91.6826 54.6664 91.2578 60.3392Z" fill="white"/>
<path d="M142.469 25.3873C142.833 25.2653 143.258 25.2043 143.743 25.2043C143.804 25.2043 143.865 25.2043 143.865 25.2043C143.804 21.3614 143.743 18.8605 143.743 18.7385V18.0675H143.076C142.894 18.0675 131.365 18.0065 114.133 17.9455H112.738C106.488 17.9455 99.9954 17.9455 93.8671 17.9455C89.2556 17.9455 76.9989 18.1285 64.7422 18.2505H63.3467C48.4808 18.4335 34.1004 18.6775 33.8577 18.6775H33.1903L33.1296 19.4095C33.1296 19.4704 32.8869 22.9473 32.7049 28.0712C32.7049 28.1932 32.7049 28.2542 32.7049 28.3762C32.7049 28.4982 32.7049 28.5592 32.7049 28.6812C32.5835 32.0971 32.4622 35.94 32.3408 39.9658C32.3408 40.1488 32.4015 40.2708 32.4622 40.3928L32.9476 41.1858C33.1903 41.5518 33.7364 41.4298 33.7364 40.9418C33.7971 36.7939 33.9184 32.7071 34.0398 29.1692C34.0398 28.9252 34.0398 28.6812 34.0398 28.4372C34.0398 28.1932 34.0398 28.0102 34.0398 27.7662C34.2218 24.1063 34.3432 21.3614 34.4645 20.1414C35.132 20.1414 36.1635 20.1414 37.6197 20.0804C38.0444 20.0804 38.5299 20.0804 39.0153 20.0804C39.8647 20.0804 40.8356 20.0804 41.8064 20.0194C42.2311 20.0194 42.7165 20.0194 43.202 20.0194C44.1121 20.0194 45.0223 20.0194 45.9931 19.9584C46.4785 19.9584 46.9032 19.9584 47.3887 19.9584C48.2988 19.9584 49.209 19.9584 50.1798 19.8974C50.6652 19.8974 51.0899 19.8974 51.5754 19.8974C52.7282 19.8974 53.8811 19.8364 55.0946 19.8364C55.58 19.8364 56.0048 19.8364 56.4902 19.8364C57.4003 19.8364 58.3712 19.8364 59.2813 19.7754C59.7667 19.7754 60.1915 19.7754 60.6769 19.7754C61.587 19.7754 62.5579 19.7754 63.468 19.7144C63.9534 19.7144 64.3782 19.7144 64.8636 19.7144C65.7737 19.7144 66.7446 19.7144 67.6547 19.6534C68.1401 19.6534 68.6255 19.6534 69.0503 19.6534C70.0211 19.6534 70.9313 19.6534 71.8414 19.5924C72.3268 19.5924 72.8122 19.5924 73.237 19.5924C74.2078 19.5924 75.1179 19.5924 76.0281 19.5314C76.5135 19.5314 76.9989 19.5314 77.4237 19.5314C78.3945 19.5314 79.3046 19.5314 80.2148 19.4704C80.7002 19.4704 81.1856 19.4704 81.6104 19.4704C82.5812 19.4704 83.552 19.4704 84.4015 19.4095C84.8869 19.4095 85.3723 19.4095 85.7971 19.4095C87.0713 19.4095 88.2241 19.4095 89.3163 19.3485C89.8017 19.3485 90.2871 19.3485 90.7119 19.3485C91.8041 19.3485 92.7142 19.3485 93.503 19.3485H93.7457C94.2311 19.3485 94.6559 19.3485 95.1413 19.3485C96.2335 19.3485 97.3863 19.3485 98.5392 19.3485H99.9347C100.845 19.3485 101.755 19.3485 102.665 19.3485C103.151 19.3485 103.575 19.3485 104.061 19.3485C104.971 19.3485 105.942 19.3485 106.852 19.3485H108.247C109.582 19.3485 110.917 19.3485 112.252 19.3485H113.648C128.817 19.3485 138.829 19.4095 141.984 19.4704C142.348 20.5074 142.408 22.5814 142.469 25.3873Z" fill="white"/>
<path d="M142.894 57.8993C142.651 57.8993 142.469 57.8993 142.226 57.8383C142.226 57.8993 142.226 58.0213 142.226 58.0823C130.941 59.4852 123.174 59.7902 111.827 59.0582H111.767L111.706 60.2782H111.767C115.771 60.5222 116.135 60.7052 120.14 60.7052C127.482 60.7052 134.885 60.2782 142.166 59.3632C142.105 60.4002 142.044 61.3152 141.984 62.2301C133.246 62.2911 125.298 62.3521 118.32 62.4741C114.74 62.5351 114.983 62.5351 111.645 62.5961C111.403 62.5961 111.16 62.5961 110.917 62.5961C110.675 62.5961 110.492 62.5961 110.25 62.5961C109.643 62.5961 108.976 62.5961 108.369 62.5961C107.883 62.5961 107.398 62.5961 106.973 62.5961C106.002 62.5961 105.092 62.5961 104.182 62.5961C103.697 62.5961 103.211 62.5961 102.787 62.5961C101.816 62.5961 100.845 62.5961 99.874 62.5961C99.3886 62.5961 98.9032 62.5961 98.4178 62.5961C97.2043 62.5961 96.0514 62.5961 94.8379 62.5961H94.1098C93.9884 62.5961 93.7457 62.5961 93.4423 62.5961C92.7749 62.5961 91.804 62.5961 90.7118 62.5961C90.2871 62.5961 89.9231 62.5961 89.4983 62.5961C89.377 62.5961 89.2556 62.5961 89.1343 62.5961C87.0712 62.5961 85.1296 62.5351 85.1296 62.5351C84.6442 62.5351 84.1588 62.5351 83.6733 62.5351C83.37 62.5351 83.0666 62.5351 82.7025 62.5351C79.6687 62.4741 76.5742 62.4131 73.5403 62.2911C73.2369 62.2911 72.8729 62.2911 72.5695 62.2911C71.0526 62.2301 69.5357 62.1691 67.9581 62.1081C67.4726 62.1081 67.0479 62.0471 66.5625 62.0471C66.0771 62.0471 65.5917 61.9861 65.1063 61.9861C64.9849 61.9861 64.8635 61.9861 64.7422 61.9861C64.3781 61.9861 64.0141 61.9251 63.7107 61.9251C54.8519 61.4981 45.5077 60.9492 35.1319 60.1562C34.5858 60.0952 34.2218 59.7292 34.1611 59.1802C34.1004 58.0822 33.9791 56.9843 33.9184 55.8253L32.5835 56.6183C32.6442 57.5333 32.7048 58.4482 32.7655 59.3632C32.8869 60.5832 33.797 61.5591 35.0106 61.6201C53.9417 63.0841 69.4143 63.8161 85.0689 63.9991C85.0689 63.9991 93.3816 64.0601 94.1098 64.0601C95.0199 64.0601 104.728 64.0601 110.128 63.9991C110.371 63.9991 110.614 63.9991 110.857 63.9991C111.099 63.9991 111.281 63.9991 111.524 63.9991C114.861 63.9381 114.679 63.9381 118.32 63.8771C125.48 63.8161 133.61 63.6941 142.651 63.6331H143.319L143.379 62.9621C143.501 61.3762 143.622 59.6072 143.683 57.7773C143.379 57.8993 143.137 57.8993 142.894 57.8993Z" fill="white"/>
<path d="M35.9817 51.9215C35.739 51.7385 35.3142 51.7385 35.1322 52.0435C33.6153 53.9344 30.8241 55.2154 27.7903 55.3374V52.8364C30.8848 52.7144 33.6759 51.4335 35.2535 49.4205C35.4356 49.1765 35.4356 48.7496 35.1322 48.5666C34.8895 48.3836 34.4647 48.3836 34.2827 48.6886C32.9478 50.3965 30.5208 51.4945 27.7903 51.6165V49.1155C30.278 48.9936 32.5231 47.9566 33.7973 46.3096C33.9793 46.0656 33.9793 45.6387 33.6759 45.4557C33.4332 45.2727 33.0085 45.2727 32.8265 45.5777C31.795 46.9196 29.914 47.7736 27.7903 47.8956V45.4557C29.6106 45.3337 31.3096 44.5407 32.2197 43.3207C32.4017 43.0767 32.4017 42.6497 32.0984 42.4668C31.8556 42.2838 31.4309 42.2838 31.2489 42.5887C30.5208 43.5037 29.2465 44.1137 27.7903 44.2357V41.9788C29.1252 41.8568 30.3387 41.2468 31.0062 40.3928C31.1882 40.1488 31.1882 39.7218 30.8848 39.5388C30.6421 39.3558 30.2174 39.3558 30.0353 39.6608C29.5499 40.2708 28.7004 40.6368 27.7903 40.7588V38.2579C28.7611 38.1359 29.6106 37.7089 30.096 37.0379C30.278 36.7939 30.278 36.3669 29.9747 36.1839C29.732 36.0009 29.3072 36.0009 29.1252 36.3059C28.8218 36.6719 28.3364 36.9159 27.7903 37.0379V34.049C27.7903 33.683 27.4869 33.439 27.1835 33.439C26.8801 33.439 26.5768 33.683 26.5768 34.049V37.0379C26.0307 36.9159 25.4846 36.6719 25.2419 36.3059C25.0598 36.0619 24.6351 36.0009 24.3924 36.1839C24.1497 36.3669 24.089 36.7939 24.271 37.0379C24.7565 37.7089 25.6059 38.1359 26.5768 38.2579V40.7588C25.6059 40.6368 24.7565 40.2098 24.3317 39.6608C24.1497 39.4168 23.725 39.3558 23.4822 39.5388C23.2395 39.7218 23.1789 40.1488 23.3609 40.3928C24.0283 41.2468 25.2419 41.8568 26.5768 41.9788V44.1747C25.1205 44.0527 23.8463 43.4427 23.1182 42.5278C22.9362 42.2838 22.5114 42.2228 22.2687 42.4058C22.026 42.5887 21.9653 43.0157 22.1474 43.2597C23.0575 44.4797 24.7565 45.2117 26.5768 45.3947V47.8346C24.4531 47.7126 22.5721 46.8586 21.5406 45.5167C21.3586 45.2727 20.9338 45.2117 20.6911 45.3947C20.4484 45.5777 20.3877 46.0046 20.5698 46.2486C21.844 47.8346 24.089 48.8716 26.5768 49.0546V51.5555C23.8463 51.4335 21.4192 50.3355 20.0843 48.6276C19.9023 48.3836 19.4776 48.3226 19.2349 48.5056C18.9922 48.6886 18.9315 49.1156 19.1135 49.3595C20.6911 51.3115 23.4822 52.5924 26.5768 52.7754V55.2764C23.4822 55.1544 20.6911 53.8734 19.2349 51.9825C19.0528 51.7385 18.6281 51.6775 18.3854 51.8605C18.1427 52.0435 18.082 52.4704 18.264 52.7144C19.963 54.9104 23.1182 56.3133 26.5768 56.4963V64.3651C26.5768 64.7311 26.8801 64.9751 27.1835 64.9751C27.4869 64.9751 27.7903 64.7311 27.7903 64.3651V56.5573C31.2489 56.4353 34.4041 54.9714 36.103 52.7754C36.285 52.4704 36.285 52.1045 35.9817 51.9215Z" fill="white"/>
<path d="M114.254 14.5906L114.072 17.9455L114.012 19.3485L111.827 59.0583L111.767 60.2782L111.645 62.5352L111.585 63.9381L111.463 66.4391L84.2193 66.1951C84.0373 66.1951 83.7945 66.1951 83.6125 66.1951H83.4912L79.5472 66.1341C79.3045 66.1341 79.0618 66.1341 78.8797 66.1341C68.2613 65.9511 56.0046 65.7071 44.1119 65.4021C29.5495 65.0361 15.7759 64.7311 9.7082 64.7921C8.37331 64.7921 6.97774 64.6701 6.12827 63.8161C5.64285 63.2672 5.40015 62.5962 5.46082 61.6812C5.64285 59.5463 5.82488 57.1063 6.06759 54.3614C6.18894 52.5925 6.37098 50.7015 6.55301 48.6886C6.97774 48.8716 7.46316 48.9936 7.94857 49.0546C7.76654 50.9455 7.64519 52.7145 7.52383 54.4224C7.28113 57.1673 7.0991 59.6073 6.91707 61.6812C6.85639 62.1692 6.97774 62.5352 7.15977 62.7182C7.64519 63.2062 8.85872 63.2672 9.7082 63.2672C15.7759 63.2062 28.9427 63.5112 44.1726 63.8771C56.0653 64.1821 68.322 64.4261 78.9404 64.6091C79.1224 64.6091 79.3651 64.6091 79.6078 64.6091L83.4305 64.6701H83.4912L90.8937 64.5481L110.25 64.8531L110.31 63.8161L110.371 62.9012V62.4132L112.737 19.1655L112.798 17.7625L112.919 15.0786L64.8027 17.2136V18.1285C64.3173 18.1285 63.8319 18.1285 63.4071 18.1285V15.8716L113.648 13.6757C113.951 13.7977 114.315 14.1636 114.254 14.5906Z" fill="#AAA050"/>
<path d="M9.28326 22.9474C9.34394 21.5444 9.34394 20.1414 9.40461 18.7385C9.40461 16.7866 10.9822 15.2006 12.9239 15.1396C26.2121 14.6516 37.8013 13.9196 48.9052 13.1877C61.3439 12.3947 74.2074 11.5407 89.6193 11.0527C89.9834 11.0527 90.2868 10.6867 90.2868 10.3207C90.2868 9.95476 89.9227 9.58877 89.5586 9.64977C74.1467 10.1378 61.2833 10.9307 48.8445 11.7847C37.68 12.5167 26.1514 13.2487 12.8632 13.7366C10.1934 13.8586 8.00905 16.0546 8.00905 18.7385C8.00905 20.3854 7.94837 21.9714 7.8877 23.5573C7.94837 23.5573 7.94837 23.5573 8.00905 23.6183C8.37311 23.3134 8.85852 23.1304 9.28326 22.9474Z" fill="#AAA050"/>
<path d="M124.994 31.8531V39.4779H136.341V31.8531H134.035V30.5721H140.042V31.8531H137.736V50.8845H140.042V52.1655H134.035V50.8845H136.341V40.6978H124.994V50.8235H127.3V52.1045H121.293V50.8235H123.599V31.8531H121.293V30.5721H127.3V31.8531H124.994Z" fill="white"/>
<path d="M155.211 51.0065H157.032V52.1045H153.998V50.4575C153.816 50.7015 153.573 50.9455 153.33 51.1895C153.088 51.4335 152.784 51.6165 152.481 51.7995C152.177 51.9825 151.753 52.1045 151.328 52.2265C150.903 52.3485 150.418 52.4095 149.811 52.4095C148.051 52.4095 146.716 51.9825 145.746 51.0675C144.836 50.1526 144.35 48.8716 144.35 47.2246V37.6479H142.53V36.611H145.564V47.0416C145.564 48.6276 145.928 49.7256 146.716 50.3355C147.505 50.9455 148.476 51.2505 149.75 51.2505C150.478 51.2505 151.085 51.1285 151.571 50.8235C152.117 50.5795 152.541 50.2136 152.906 49.8476C153.27 49.4816 153.512 49.1156 153.694 48.8106C153.876 48.4446 153.937 48.2006 153.937 48.0786V37.6479H152.117V36.611H155.151V51.0065H155.211Z" fill="white"/>
<path d="M164.859 51.0065V52.1045H159.944V51.0065H161.765V30.5721H159.944V29.4742H162.978V51.0065H164.859Z" fill="white"/>
<path d="M167.589 51.0065H169.409V37.5869H167.589V36.5499H170.623V37.7699C170.926 37.3429 171.29 36.9769 171.837 36.6719C172.322 36.367 173.05 36.184 174.021 36.184C174.628 36.184 175.174 36.245 175.598 36.428C176.023 36.5499 176.387 36.7329 176.691 36.9769C176.994 37.1599 177.176 37.4039 177.358 37.6479C177.54 37.8919 177.661 38.1359 177.722 38.3189C177.843 38.1359 178.026 37.8919 178.208 37.6479C178.39 37.4039 178.632 37.1599 178.996 36.9159C179.3 36.6719 179.664 36.489 180.149 36.367C180.574 36.245 181.12 36.184 181.727 36.184C182.394 36.184 183.001 36.306 183.486 36.489C184.033 36.6719 184.457 36.9769 184.821 37.3429C185.185 37.7089 185.489 38.1359 185.671 38.6239C185.853 39.1119 185.974 39.6609 185.974 40.2098V50.9455H187.794V52.0435H182.88V50.9455H184.7V40.2708C184.7 39.3559 184.397 38.6849 183.851 38.1969C183.304 37.7089 182.576 37.4649 181.666 37.4649C181.241 37.4649 180.817 37.5259 180.392 37.6479C179.967 37.7699 179.603 37.9529 179.3 38.1969C178.996 38.4409 178.754 38.7459 178.572 39.1119C178.39 39.4779 178.268 39.8439 178.268 40.3318V51.0675H180.089V52.1655H175.174V51.0675H176.994V40.2708C176.994 39.8438 176.933 39.4169 176.751 39.0509C176.569 38.6849 176.327 38.3799 176.084 38.1359C175.78 37.8919 175.477 37.7089 175.113 37.5869C174.749 37.4649 174.385 37.4039 173.96 37.4039C173.535 37.4039 173.111 37.4649 172.686 37.5869C172.261 37.7089 171.958 37.8919 171.594 38.1359C171.29 38.3799 171.048 38.6849 170.866 39.0509C170.684 39.4169 170.562 39.8438 170.562 40.2708V50.9455H172.383V52.0435H167.468V51.0065H167.589Z" fill="white"/>
<path d="M199.566 31.8531V39.4779H210.913V31.8531H208.607V30.5721H214.614V31.8531H212.308V50.8845H214.614V52.1655H208.607V50.8845H210.913V40.6978H199.566V50.8235H201.872V52.1045H195.865V50.8235H198.17V31.8531H195.865V30.5721H201.872V31.8531H199.566Z" fill="white"/>
<path d="M220.924 37.8919C220.135 38.1969 219.529 38.5629 219.043 39.0509L218.315 38.0749C218.922 37.4649 219.65 37.0379 220.621 36.6719C221.531 36.367 222.502 36.184 223.412 36.184C224.261 36.184 225.05 36.306 225.778 36.5499C226.506 36.7939 227.113 37.1599 227.659 37.5869C228.205 38.0749 228.63 38.6239 228.933 39.2949C229.237 39.9658 229.419 40.6978 229.419 41.5518V51.0065H231.664V52.1045H228.266V49.9695C228.084 50.2135 227.841 50.4575 227.538 50.7625C227.235 51.0675 226.87 51.3115 226.446 51.5555C226.021 51.7995 225.475 51.9825 224.868 52.1655C224.261 52.3485 223.533 52.4095 222.744 52.4095C221.774 52.4095 220.863 52.2265 220.075 51.9215C219.286 51.6165 218.679 51.1895 218.194 50.6405C217.708 50.0915 217.284 49.4816 217.041 48.8106C216.798 48.1396 216.677 47.4076 216.677 46.6756C216.677 45.9437 216.798 45.2117 217.101 44.5407C217.405 43.8697 217.769 43.2597 218.315 42.7108C218.861 42.1618 219.468 41.7958 220.257 41.4298C221.045 41.1248 221.895 40.9418 222.866 40.9418C223.594 40.9418 224.261 41.0028 224.807 41.1248C225.354 41.2468 225.9 41.4298 226.324 41.6738C226.749 41.9178 227.174 42.1618 227.538 42.4668C227.902 42.7718 228.145 43.0768 228.387 43.3817V41.6738C228.387 40.9418 228.266 40.2708 227.963 39.7219C227.659 39.1729 227.295 38.6849 226.87 38.3799C226.446 38.0139 225.9 37.7699 225.354 37.5869C224.807 37.4039 224.201 37.3429 223.655 37.3429C222.502 37.4649 221.652 37.5869 220.924 37.8919ZM218.072 48.3226C218.254 48.8716 218.618 49.3596 218.982 49.7255C219.407 50.1525 219.893 50.4575 220.499 50.7625C221.106 51.0065 221.834 51.1285 222.623 51.1285C223.533 51.1285 224.261 51.0065 224.929 50.7625C225.596 50.5185 226.142 50.1525 226.567 49.7255C226.992 49.2986 227.295 48.8106 227.538 48.3226C227.781 47.7736 227.841 47.2246 227.841 46.6756C227.841 46.1267 227.72 45.5777 227.538 45.0287C227.295 44.4797 226.992 43.9917 226.567 43.6257C226.142 43.1987 225.596 42.8938 224.929 42.5888C224.261 42.3448 223.473 42.2228 222.623 42.2228C221.774 42.2228 221.106 42.3448 220.439 42.5888C219.832 42.8328 219.286 43.1987 218.922 43.6257C218.497 44.0527 218.194 44.5407 218.012 45.0287C217.83 45.5777 217.708 46.1267 217.708 46.6146C217.769 47.2856 217.89 47.8346 218.072 48.3226Z" fill="white"/>
<path d="M245.195 51.0065H247.015V52.1045H243.982V50.4575C243.8 50.7015 243.557 50.9455 243.314 51.1895C243.071 51.4335 242.768 51.6165 242.465 51.7995C242.161 51.9825 241.737 52.1045 241.312 52.2265C240.887 52.3485 240.402 52.4095 239.795 52.4095C238.035 52.4095 236.7 51.9825 235.73 51.0675C234.819 50.1526 234.334 48.8716 234.334 47.2246V37.6479H232.514V36.611H235.548V47.0416C235.548 48.6276 235.912 49.7256 236.7 50.3355C237.489 50.9455 238.46 51.2505 239.734 51.2505C240.462 51.2505 241.069 51.1285 241.555 50.8235C242.101 50.5795 242.525 50.2136 242.889 49.8476C243.253 49.4816 243.496 49.1156 243.678 48.8106C243.86 48.4446 243.921 48.2006 243.921 48.0786V37.6479H242.101V36.611H245.134V51.0065H245.195Z" fill="white"/>
<path d="M258.544 46.5537C258.362 46.1877 258.058 45.8827 257.755 45.6387C257.391 45.3947 257.027 45.1507 256.541 45.0287C256.056 44.8457 255.51 44.6627 254.903 44.5407C254.236 44.3577 253.629 44.1747 253.022 43.9307C252.476 43.6868 251.991 43.3818 251.627 43.0768C251.263 42.7108 250.959 42.3448 250.717 41.8568C250.474 41.3688 250.413 40.8198 250.413 40.1489C250.413 39.5999 250.534 39.0509 250.777 38.5629C251.02 38.0749 251.323 37.6479 251.748 37.2819C252.173 36.916 252.658 36.672 253.204 36.428C253.75 36.245 254.418 36.123 255.025 36.123C255.935 36.123 256.724 36.245 257.33 36.489C257.937 36.733 258.422 37.038 258.787 37.3429V36.306H259.879V39.9049H258.787V38.7459C258.362 38.3189 257.816 38.0139 257.27 37.6479C256.663 37.3429 255.935 37.16 255.085 37.16C254.114 37.16 253.326 37.4039 252.658 37.8919C251.991 38.3799 251.687 39.1119 251.687 40.0269C251.687 40.9418 251.93 41.5518 252.476 42.0398C253.022 42.4668 253.811 42.8328 254.964 43.1378C255.692 43.3208 256.359 43.5648 257.027 43.8088C257.634 44.0527 258.18 44.3577 258.665 44.6627C259.09 45.0287 259.454 45.4557 259.757 45.9437C260 46.4317 260.121 47.0417 260.121 47.7736C260.121 48.5056 260 49.1156 259.697 49.6646C259.454 50.2136 259.09 50.7015 258.604 51.0675C258.119 51.4335 257.634 51.7385 257.027 51.9215C256.42 52.1045 255.753 52.2265 255.085 52.2265C254.236 52.2265 253.508 52.1045 252.901 51.9215C252.233 51.6775 251.687 51.3725 251.202 51.0065V52.1045H250.17V48.0176H251.202V49.5426C251.687 49.9696 252.233 50.3356 252.901 50.6405C253.568 50.9455 254.296 51.0675 255.146 51.0675C256.299 51.0675 257.209 50.7625 257.937 50.2136C258.665 49.6646 259.029 48.8716 259.029 47.8346C258.787 47.3466 258.726 46.9197 258.544 46.5537Z" fill="white"/>
</g>
<defs>
<clipPath id="clip0_126_404">
<rect width="260" height="66" fill="white" transform="translate(0 0.5)"/>
</clipPath>
</defs>
</svg>
