<svg width="29" height="30" viewBox="0 0 29 30" fill="none" xmlns="http://www.w3.org/2000/svg">
<path fill-rule="evenodd" clip-rule="evenodd" d="M28.0256 0.97148L0 0.971481L0 29.1517L28.0256 29.1517L28.0256 0.97148ZM14.3536 26.6727C20.6629 26.6727 25.7776 21.558 25.7776 15.2487C25.7776 8.93942 20.6629 3.82473 14.3536 3.82473C8.04434 3.82473 2.92965 8.93941 2.92965 15.2487C2.92965 21.558 8.04434 26.6727 14.3536 26.6727Z" fill="white"/>
<path d="M16.2969 15.1803C16.2969 16.4488 15.2686 17.4771 14 17.4771C12.7314 17.4771 11.7031 16.4488 11.7031 15.1803C11.7031 13.9117 12.7314 12.8834 14 12.8834C15.2686 12.8834 16.2969 13.9117 16.2969 15.1803Z" fill="white"/>
<path d="M19.3716 11.1164C19.2612 10.8172 19.085 10.5464 18.8561 10.3241C18.6339 10.0952 18.3632 9.9191 18.0638 9.80869C17.821 9.71439 17.4563 9.60214 16.7845 9.57156C16.0577 9.53842 15.8398 9.53128 14 9.53128C12.16 9.53128 11.9421 9.53824 11.2155 9.57138C10.5437 9.60214 10.1788 9.71439 9.93616 9.80869C9.63678 9.9191 9.36597 10.0952 9.14386 10.3241C8.91498 10.5464 8.73883 10.817 8.62823 11.1164C8.53394 11.3592 8.42169 11.7242 8.39111 12.396C8.35797 13.1225 8.35083 13.3404 8.35083 15.1805C8.35083 17.0203 8.35797 17.2382 8.39111 17.9649C8.42169 18.6367 8.53394 19.0015 8.62823 19.2443C8.73883 19.5437 8.91479 19.8143 9.14368 20.0366C9.36597 20.2655 9.6366 20.4416 9.93597 20.552C10.1788 20.6465 10.5437 20.7588 11.2155 20.7893C11.9421 20.8225 12.1598 20.8294 13.9998 20.8294C15.84 20.8294 16.0579 20.8225 16.7843 20.7893C17.4561 20.7588 17.821 20.6465 18.0638 20.552C18.6648 20.3202 19.1398 19.8452 19.3716 19.2443C19.4659 19.0015 19.5781 18.6367 19.6089 17.9649C19.642 17.2382 19.649 17.0203 19.649 15.1805C19.649 13.3404 19.642 13.1225 19.6089 12.396C19.5783 11.7242 19.4661 11.3592 19.3716 11.1164ZM14 18.7186C12.0457 18.7186 10.4615 17.1346 10.4615 15.1803C10.4615 13.226 12.0457 11.6419 14 11.6419C15.9541 11.6419 17.5383 13.226 17.5383 15.1803C17.5383 17.1346 15.9541 18.7186 14 18.7186ZM17.6782 12.3289C17.2216 12.3289 16.8513 11.9587 16.8513 11.502C16.8513 11.0454 17.2216 10.6751 17.6782 10.6751C18.1349 10.6751 18.5051 11.0454 18.5051 11.502C18.5049 11.9587 18.1349 12.3289 17.6782 12.3289Z" fill="white"/>
<path d="M14 3.18027C7.3736 3.18027 2 8.55386 2 15.1803C2 21.8067 7.3736 27.1803 14 27.1803C20.6264 27.1803 26 21.8067 26 15.1803C26 8.55386 20.6264 3.18027 14 3.18027ZM20.8491 18.0211C20.8157 18.7547 20.6991 19.2555 20.5288 19.6938C20.1708 20.6194 19.4391 21.3511 18.5135 21.7091C18.0754 21.8794 17.5744 21.9958 16.8411 22.0293C16.1063 22.0628 15.8715 22.0709 14.0002 22.0709C12.1287 22.0709 11.8941 22.0628 11.1591 22.0293C10.4258 21.9958 9.9248 21.8794 9.48663 21.7091C9.02667 21.536 8.61029 21.2649 8.26605 20.9142C7.91559 20.5702 7.64441 20.1536 7.47137 19.6938C7.30109 19.2556 7.18445 18.7547 7.15112 18.0213C7.11725 17.2863 7.10938 17.0516 7.10938 15.1803C7.10938 13.3089 7.11725 13.0742 7.15094 12.3394C7.18427 11.6059 7.30072 11.1051 7.47101 10.6667C7.64404 10.2069 7.91541 9.79037 8.26605 9.44632C8.61011 9.09567 9.02667 8.82449 9.48645 8.65146C9.9248 8.48117 10.4256 8.36472 11.1591 8.33121C11.8939 8.2977 12.1287 8.28964 14 8.28964C15.8713 8.28964 16.1061 8.2977 16.8409 8.33139C17.5744 8.36472 18.0752 8.48117 18.5135 8.65128C18.9733 8.82431 19.3899 9.09567 19.7341 9.44632C20.0846 9.79056 20.356 10.2069 20.5288 10.6667C20.6993 11.1051 20.8157 11.6059 20.8492 12.3394C20.8828 13.0742 20.8906 13.3089 20.8906 15.1803C20.8906 17.0516 20.8828 17.2863 20.8491 18.0211Z" fill="white"/>
</svg>
