<svg width="29" height="30" viewBox="0 0 29 30" fill="none" xmlns="http://www.w3.org/2000/svg">
<path fill-rule="evenodd" clip-rule="evenodd" d="M28.0256 0.942946L0 0.942947L0 29.1232L28.0256 29.1232L28.0256 0.942946ZM14.3536 26.6441C20.6629 26.6441 25.7776 21.5295 25.7776 15.2202C25.7776 8.91088 20.6629 3.79619 14.3536 3.79619C8.04434 3.79619 2.92965 8.91088 2.92965 15.2202C2.92965 21.5295 8.04434 26.6441 14.3536 26.6441Z" fill="white"/>
<g clip-path="url(#clip0_39_155)">
<path d="M14.0256 3.1232C7.39924 3.1232 2.02563 8.49681 2.02563 15.1232C2.02563 21.7496 7.39924 27.1232 14.0256 27.1232C20.652 27.1232 26.0256 21.7496 26.0256 15.1232C26.0256 8.49681 20.652 3.1232 14.0256 3.1232ZM20.0458 12.3047V13.9296C19.2796 13.9299 18.5352 13.7797 17.8331 13.4835C17.3817 13.2929 16.961 13.0473 16.5763 12.7506L16.5879 17.7518C16.583 18.878 16.1375 19.9361 15.3311 20.7331C14.6749 21.3819 13.8433 21.7944 12.942 21.9279C12.7302 21.9593 12.5147 21.9754 12.2967 21.9754C11.3319 21.9754 10.4159 21.6628 9.66659 21.0862C9.52559 20.9776 9.39073 20.8599 9.26234 20.7331C8.3884 19.8693 7.93774 18.6987 8.01363 17.4671C8.07153 16.5297 8.44685 15.6356 9.07254 14.9349C9.90035 14.0076 11.0584 13.4929 12.2967 13.4929C12.5147 13.4929 12.7302 13.5093 12.942 13.5407V14.1414V15.8126C12.7412 15.7464 12.5267 15.7099 12.3034 15.7099C11.1721 15.7099 10.2569 16.6329 10.2738 17.765C10.2845 18.4894 10.6802 19.1226 11.2638 19.4716C11.5381 19.6357 11.8536 19.7373 12.1903 19.7558C12.4541 19.7702 12.7074 19.7335 12.942 19.6561C13.7502 19.3891 14.3333 18.6299 14.3333 17.7345L14.336 14.3854V8.27101H16.5736C16.5758 8.49273 16.5983 8.70906 16.6401 8.91868C16.809 9.76717 17.2872 10.5033 17.9529 11.0051C18.5333 11.4429 19.256 11.7024 20.0393 11.7024C20.0398 11.7024 20.0463 11.7024 20.0457 11.7019V12.3047H20.0458Z" fill="white"/>
</g>
<defs>
<clipPath id="clip0_39_155">
<rect width="24" height="24" fill="white" transform="translate(2.02563 3.1232)"/>
</clipPath>
</defs>
</svg>
