<svg width="29" height="30" viewBox="0 0 29 30" fill="none" xmlns="http://www.w3.org/2000/svg">
<path fill-rule="evenodd" clip-rule="evenodd" d="M28.0256 0.914429L-1.2318e-06 0.914429L0 29.0947L28.0256 29.0947L28.0256 0.914429ZM12.4273 17.2939L16.0279 15.2044L12.4273 13.115L12.4273 17.2939ZM19.1236 19.968C19.9566 19.8447 20.4858 19.3432 20.6304 18.5325L20.6387 18.5325C21.028 16.3353 21.0287 14.0856 20.6408 11.8881C20.494 11.0398 19.9566 10.5634 19.0885 10.4255C17.3233 10.1434 10.244 10.1497 8.50157 10.4255C7.57971 10.5717 7.04437 11.1547 6.91002 12.0824C6.60515 14.1605 6.60515 16.2727 6.91002 18.3507C6.95006 18.7593 7.12636 19.1419 7.40994 19.4358C7.69352 19.7297 8.06754 19.9173 8.47057 19.968C9.51644 20.1581 16.6433 20.3357 19.1236 19.968Z" fill="white"/>
</svg>
