<svg width="24" height="24" viewBox="0 0 24 24" fill="none" xmlns="http://www.w3.org/2000/svg">
<g clip-path="url(#clip0_13_1085)">
<path opacity="0.7" fill-rule="evenodd" clip-rule="evenodd" d="M24 12C24 18.6274 18.6274 24 12 24C5.37258 24 0 18.6274 0 12C0 5.37258 5.37258 0 12 0C18.6274 0 24 5.37258 24 12ZM17.061 6.27902L5.49099 10.74C4.69799 11.05 4.71199 11.489 5.35499 11.693L8.31699 12.617L15.188 8.29103C15.507 8.07903 15.803 8.19902 15.561 8.41202L10.001 13.435L9.78799 16.488C10.098 16.488 10.233 16.353 10.393 16.193L11.84 14.799L14.84 17.01C15.387 17.32 15.778 17.16 15.924 16.502L17.894 7.22102L17.893 7.22202C18.067 6.41002 17.598 6.08502 17.061 6.27902Z" fill="white"/>
</g>
<defs>
<clipPath id="clip0_13_1085">
<rect width="24" height="24" fill="white"/>
</clipPath>
</defs>
</svg>
