<svg width="24" height="24" viewBox="0 0 24 24" fill="none" xmlns="http://www.w3.org/2000/svg">
<g opacity="0.7" clip-path="url(#clip0_13_1078)">
<path fill-rule="evenodd" clip-rule="evenodd" d="M12 24C18.6274 24 24 18.6274 24 12C24 5.37258 18.6274 0 12 0C5.37258 0 0 5.37258 0 12C0 18.6274 5.37258 24 12 24ZM16.2331 7.76683C15.2346 6.75698 13.9079 6.1374 12.4926 6.01997C11.0773 5.90253 9.66661 6.29498 8.51528 7.12645C7.36395 7.95793 6.54783 9.17364 6.21426 10.5541C5.88069 11.9345 6.05167 13.3888 6.69631 14.6542L6.06473 17.7205C6.05797 17.7511 6.0577 17.7828 6.06396 17.8136C6.07021 17.8443 6.08285 17.8734 6.10104 17.8989C6.1271 17.9376 6.16435 17.9674 6.2078 17.9843C6.25126 18.0013 6.29885 18.0045 6.3442 17.9937L9.3442 17.2816C10.6062 17.9093 12.05 18.0689 13.4186 17.7319C14.7872 17.3949 15.9918 16.5832 16.818 15.4413C17.6442 14.2993 18.0384 12.9013 17.9305 11.4959C17.8225 10.0906 17.2194 8.76916 16.2284 7.76683H16.2331ZM15.294 15.2475C14.6036 15.9362 13.7148 16.3914 12.7524 16.549C11.7895 16.7068 10.8013 16.5588 9.92683 16.1258L9.50683 15.9174L7.6642 16.3532V16.3295L8.05262 14.471L7.84736 14.0668C7.40024 13.19 7.24236 12.1941 7.3964 11.2219C7.55043 10.2498 8.00844 9.35145 8.70473 8.65578C9.579 7.78242 10.7642 7.29184 12 7.29184C13.2358 7.29184 14.421 7.78242 15.2953 8.65578L15.3158 8.6842C16.1787 9.56034 16.6604 10.742 16.656 11.9717C16.6515 13.2005 16.162 14.3778 15.294 15.2475ZM14.1016 14.7932C14.5484 14.6842 14.9068 14.25 15.1326 13.8947C15.1699 13.838 15.1933 13.7733 15.2009 13.7058C15.2086 13.6383 15.2002 13.57 15.1765 13.5063C15.1529 13.4427 15.1145 13.3855 15.0647 13.3394C15.0148 13.2933 14.9548 13.2596 14.8895 13.2411L13.7368 12.9111C13.6609 12.8893 13.5804 12.889 13.5044 12.9102C13.4283 12.9314 13.3595 12.9732 13.3058 13.0311L13.0231 13.3184C12.9652 13.3779 12.8909 13.4189 12.8096 13.436C12.7284 13.4532 12.6439 13.4458 12.5668 13.4147C12.1448 13.1966 11.7565 12.9184 11.4142 12.5889C11.096 12.3198 10.8161 12.0085 10.5821 11.6637C10.5407 11.5915 10.5217 11.5087 10.5276 11.4257C10.5336 11.3428 10.564 11.2634 10.6152 11.1979L10.8616 10.8821C10.9089 10.821 10.9388 10.7482 10.948 10.6714C10.9572 10.5947 10.9453 10.5169 10.9137 10.4463L10.4289 9.35053C10.4023 9.28904 10.3617 9.23462 10.3104 9.19163C10.259 9.14863 10.1983 9.11825 10.1331 9.10291C10.0679 9.08757 9.99999 9.08769 9.93484 9.10327C9.86969 9.11885 9.80909 9.14945 9.75788 9.19263C9.43577 9.46421 9.05367 9.87789 9.00788 10.3374C8.93051 11.1442 9.27788 12.1626 10.5868 13.3847L10.6058 13.4021C12.1105 14.7932 13.3121 14.9826 14.1016 14.7932Z" fill="white"/>
</g>
<defs>
<clipPath id="clip0_13_1078">
<rect width="24" height="24" fill="white"/>
</clipPath>
</defs>
</svg>
